<svg width="75" height="35" viewBox="0 0 75 35" fill="none" xmlns="http://www.w3.org/2000/svg">
<path d="M51.358 17.404C51.918 17.5813 52.3567 17.88 52.674 18.3C52.9913 18.7107 53.15 19.2193 53.15 19.826C53.15 20.6847 52.814 21.3473 52.142 21.814C51.4793 22.2713 50.5087 22.5 49.23 22.5H44.162V12.7H48.95C50.1447 12.7 51.0593 12.9287 51.694 13.386C52.338 13.8433 52.66 14.464 52.66 15.248C52.66 15.724 52.5433 16.1487 52.31 16.522C52.086 16.8953 51.7687 17.1893 51.358 17.404ZM46.416 14.408V16.718H48.67C49.23 16.718 49.6547 16.62 49.944 16.424C50.2333 16.228 50.378 15.9387 50.378 15.556C50.378 15.1733 50.2333 14.8887 49.944 14.702C49.6547 14.506 49.23 14.408 48.67 14.408H46.416ZM49.062 20.792C49.6593 20.792 50.1073 20.694 50.406 20.498C50.714 20.302 50.868 19.9987 50.868 19.588C50.868 18.776 50.266 18.37 49.062 18.37H46.416V20.792H49.062ZM61.3211 20.4H56.7711L55.9031 22.5H53.5791L57.9471 12.7H60.1871L64.5691 22.5H62.1891L61.3211 20.4ZM60.6071 18.678L59.0531 14.926L57.4991 18.678H60.6071ZM69.8278 12.7C70.6958 12.7 71.4472 12.8447 72.0818 13.134C72.7258 13.4233 73.2205 13.834 73.5658 14.366C73.9112 14.898 74.0838 15.528 74.0838 16.256C74.0838 16.9747 73.9112 17.6047 73.5658 18.146C73.2205 18.678 72.7258 19.0887 72.0818 19.378C71.4472 19.658 70.6958 19.798 69.8278 19.798H67.8538V22.5H65.5858V12.7H69.8278ZM69.7018 17.95C70.3832 17.95 70.9012 17.8053 71.2558 17.516C71.6105 17.2173 71.7878 16.7973 71.7878 16.256C71.7878 15.7053 71.6105 15.2853 71.2558 14.996C70.9012 14.6973 70.3832 14.548 69.7018 14.548H67.8538V17.95H69.7018Z" fill="#4E4E4E"/>
<circle cx="17.5" cy="17.5" r="17.5" fill="#FF0099" fill-opacity="0.15"/>
<path d="M7.5 17.5C7.5 17.721 7.5878 17.933 7.74408 18.0892C7.90036 18.2455 8.11232 18.3333 8.33333 18.3333H24.655L21.0783 21.91C20.9265 22.0672 20.8425 22.2777 20.8444 22.4962C20.8463 22.7147 20.934 22.9237 21.0885 23.0782C21.243 23.2327 21.452 23.3203 21.6705 23.3222C21.889 23.3241 22.0995 23.2401 22.2567 23.0883L27.2567 18.0883C27.3338 18.0117 27.395 17.9205 27.4367 17.8201C27.4785 17.7197 27.5 17.6121 27.5 17.5033V17.5C27.5 17.3917 27.4783 17.2833 27.435 17.1817C27.3935 17.0806 27.3323 16.9889 27.255 16.9117L22.255 11.9117C22.0978 11.7599 21.8873 11.6759 21.6688 11.6778C21.4503 11.6797 21.2413 11.7673 21.0868 11.9218C20.9323 12.0763 20.8447 12.2853 20.8428 12.5038C20.8409 12.7223 20.9249 12.9328 21.0767 13.09L24.655 16.6667H8.33333C8.11232 16.6667 7.90036 16.7545 7.74408 16.9107C7.5878 17.067 7.5 17.279 7.5 17.5Z" fill="#4E4E4E"/>
</svg>
