<svg width="143" height="35" viewBox="0 0 143 35" fill="none" xmlns="http://www.w3.org/2000/svg">
<path d="M55.852 23.168C55.096 23.168 54.3913 23.0467 53.738 22.804C53.094 22.552 52.534 22.1973 52.058 21.74C51.582 21.2827 51.2087 20.746 50.938 20.13C50.6767 19.514 50.546 18.8373 50.546 18.1C50.546 17.3627 50.6767 16.686 50.938 16.07C51.2087 15.454 51.582 14.9173 52.058 14.46C52.5433 14.0027 53.108 13.6527 53.752 13.41C54.396 13.158 55.1007 13.032 55.866 13.032C56.7153 13.032 57.4807 13.1813 58.162 13.48C58.8527 13.7693 59.4313 14.1987 59.898 14.768L58.442 16.112C58.106 15.7293 57.7327 15.4447 57.322 15.258C56.9113 15.062 56.4633 14.964 55.978 14.964C55.5207 14.964 55.1007 15.0387 54.718 15.188C54.3353 15.3373 54.004 15.552 53.724 15.832C53.444 16.112 53.2247 16.4433 53.066 16.826C52.9167 17.2087 52.842 17.6333 52.842 18.1C52.842 18.5667 52.9167 18.9913 53.066 19.374C53.2247 19.7567 53.444 20.088 53.724 20.368C54.004 20.648 54.3353 20.8627 54.718 21.012C55.1007 21.1613 55.5207 21.236 55.978 21.236C56.4633 21.236 56.9113 21.1427 57.322 20.956C57.7327 20.76 58.106 20.466 58.442 20.074L59.898 21.418C59.4313 21.9873 58.8527 22.4213 58.162 22.72C57.4807 23.0187 56.7107 23.168 55.852 23.168ZM61.0343 17.26L61.9583 13.9L62.2663 15.174C61.865 15.174 61.5336 15.0573 61.2723 14.824C61.0203 14.5813 60.8943 14.2547 60.8943 13.844C60.8943 13.4427 61.025 13.1207 61.2863 12.878C61.5476 12.626 61.8696 12.5 62.2523 12.5C62.6443 12.5 62.9663 12.626 63.2183 12.878C63.4703 13.1207 63.5963 13.4427 63.5963 13.844C63.5963 13.9653 63.587 14.0867 63.5683 14.208C63.559 14.32 63.5263 14.4553 63.4703 14.614C63.4236 14.7727 63.3443 14.9827 63.2323 15.244L62.4203 17.26H61.0343ZM69.9624 23.168C69.1877 23.168 68.4737 23.0467 67.8204 22.804C67.1764 22.552 66.6117 22.1973 66.1264 21.74C65.6504 21.2827 65.277 20.746 65.0064 20.13C64.745 19.514 64.6144 18.8373 64.6144 18.1C64.6144 17.3627 64.745 16.686 65.0064 16.07C65.277 15.454 65.655 14.9173 66.1404 14.46C66.6257 14.0027 67.195 13.6527 67.8484 13.41C68.5017 13.158 69.2204 13.032 70.0044 13.032C70.8724 13.032 71.6517 13.1767 72.3424 13.466C73.0424 13.7553 73.6304 14.1753 74.1064 14.726L72.6504 16.07C72.2957 15.6967 71.9084 15.4213 71.4884 15.244C71.0684 15.0573 70.611 14.964 70.1164 14.964C69.6404 14.964 69.2064 15.0387 68.8144 15.188C68.4224 15.3373 68.0817 15.552 67.7924 15.832C67.5124 16.112 67.293 16.4433 67.1344 16.826C66.985 17.2087 66.9104 17.6333 66.9104 18.1C66.9104 18.5573 66.985 18.9773 67.1344 19.36C67.293 19.7427 67.5124 20.0787 67.7924 20.368C68.0817 20.648 68.4177 20.8627 68.8004 21.012C69.1924 21.1613 69.6217 21.236 70.0884 21.236C70.5364 21.236 70.9704 21.166 71.3904 21.026C71.8197 20.8767 72.235 20.6293 72.6364 20.284L73.9244 21.922C73.3924 22.3233 72.7717 22.6313 72.0624 22.846C71.3624 23.0607 70.6624 23.168 69.9624 23.168ZM71.8524 21.628V17.946H73.9244V21.922L71.8524 21.628ZM80.4971 23V21.53L80.3571 21.208V18.576C80.3571 18.1093 80.2125 17.7453 79.9231 17.484C79.6431 17.2227 79.2091 17.092 78.6211 17.092C78.2198 17.092 77.8231 17.1573 77.4311 17.288C77.0485 17.4093 76.7218 17.5773 76.4511 17.792L75.6671 16.266C76.0778 15.9767 76.5725 15.7527 77.1511 15.594C77.7298 15.4353 78.3178 15.356 78.9151 15.356C80.0631 15.356 80.9545 15.6267 81.5891 16.168C82.2238 16.7093 82.5411 17.554 82.5411 18.702V23H80.4971ZM78.2011 23.112C77.6131 23.112 77.1091 23.014 76.6891 22.818C76.2691 22.6127 75.9471 22.3373 75.7231 21.992C75.4991 21.6467 75.3871 21.2593 75.3871 20.83C75.3871 20.382 75.4945 19.99 75.7091 19.654C75.9331 19.318 76.2831 19.0567 76.7591 18.87C77.2351 18.674 77.8558 18.576 78.6211 18.576H80.6231V19.85H78.8591C78.3458 19.85 77.9911 19.934 77.7951 20.102C77.6085 20.27 77.5151 20.48 77.5151 20.732C77.5151 21.012 77.6225 21.236 77.8371 21.404C78.0611 21.5627 78.3645 21.642 78.7471 21.642C79.1111 21.642 79.4378 21.558 79.7271 21.39C80.0165 21.2127 80.2265 20.956 80.3571 20.62L80.6931 21.628C80.5345 22.1133 80.2451 22.482 79.8251 22.734C79.4051 22.986 78.8638 23.112 78.2011 23.112ZM87.5978 23.112C86.7111 23.112 86.0204 22.888 85.5258 22.44C85.0311 21.9827 84.7838 21.306 84.7838 20.41V13.802H86.9678V20.382C86.9678 20.6993 87.0518 20.9467 87.2198 21.124C87.3878 21.292 87.6164 21.376 87.9058 21.376C88.2511 21.376 88.5451 21.2827 88.7878 21.096L89.3758 22.636C89.1518 22.7947 88.8811 22.916 88.5638 23C88.2558 23.0747 87.9338 23.112 87.5978 23.112ZM83.6218 17.316V15.636H88.8438V17.316H83.6218ZM94.1073 23.112C93.2487 23.112 92.4927 22.944 91.8393 22.608C91.1953 22.272 90.696 21.8147 90.3413 21.236C89.9867 20.648 89.8093 19.9807 89.8093 19.234C89.8093 18.478 89.982 17.8107 90.3273 17.232C90.682 16.644 91.1627 16.1867 91.7693 15.86C92.376 15.524 93.062 15.356 93.8273 15.356C94.5647 15.356 95.2273 15.5147 95.8153 15.832C96.4127 16.14 96.884 16.588 97.2293 17.176C97.5747 17.7547 97.7473 18.45 97.7473 19.262C97.7473 19.346 97.7427 19.444 97.7333 19.556C97.724 19.6587 97.7147 19.7567 97.7053 19.85H91.5873V18.576H96.5573L95.7173 18.954C95.7173 18.562 95.638 18.2213 95.4793 17.932C95.3207 17.6427 95.1013 17.4187 94.8213 17.26C94.5413 17.092 94.2147 17.008 93.8413 17.008C93.468 17.008 93.1367 17.092 92.8473 17.26C92.5673 17.4187 92.348 17.6473 92.1893 17.946C92.0307 18.2353 91.9513 18.5807 91.9513 18.982V19.318C91.9513 19.7287 92.04 20.0927 92.2173 20.41C92.404 20.718 92.6607 20.956 92.9873 21.124C93.3233 21.2827 93.7153 21.362 94.1633 21.362C94.5647 21.362 94.9147 21.3013 95.2133 21.18C95.5213 21.0587 95.8013 20.8767 96.0533 20.634L97.2153 21.894C96.87 22.286 96.436 22.5893 95.9133 22.804C95.3907 23.0093 94.7887 23.112 94.1073 23.112ZM107.674 23.168C106.284 23.168 105.196 22.7807 104.412 22.006C103.628 21.2313 103.236 20.1253 103.236 18.688V13.2H105.504V18.604C105.504 19.5373 105.696 20.2093 106.078 20.62C106.461 21.0307 106.998 21.236 107.688 21.236C108.379 21.236 108.916 21.0307 109.298 20.62C109.681 20.2093 109.872 19.5373 109.872 18.604V13.2H112.112V18.688C112.112 20.1253 111.72 21.2313 110.936 22.006C110.152 22.7807 109.065 23.168 107.674 23.168ZM117.573 23.168C116.789 23.168 116.038 23.0653 115.319 22.86C114.601 22.6453 114.022 22.37 113.583 22.034L114.353 20.326C114.773 20.6247 115.268 20.872 115.837 21.068C116.416 21.2547 116.999 21.348 117.587 21.348C118.035 21.348 118.395 21.306 118.665 21.222C118.945 21.1287 119.151 21.0027 119.281 20.844C119.412 20.6853 119.477 20.5033 119.477 20.298C119.477 20.0367 119.375 19.8313 119.169 19.682C118.964 19.5233 118.693 19.3973 118.357 19.304C118.021 19.2013 117.648 19.108 117.237 19.024C116.836 18.9307 116.43 18.8187 116.019 18.688C115.618 18.5573 115.249 18.3893 114.913 18.184C114.577 17.9787 114.302 17.708 114.087 17.372C113.882 17.036 113.779 16.6067 113.779 16.084C113.779 15.524 113.929 15.0153 114.227 14.558C114.535 14.0913 114.993 13.7227 115.599 13.452C116.215 13.172 116.985 13.032 117.909 13.032C118.525 13.032 119.132 13.1067 119.729 13.256C120.327 13.396 120.854 13.6107 121.311 13.9L120.611 15.622C120.154 15.3607 119.697 15.1693 119.239 15.048C118.782 14.9173 118.334 14.852 117.895 14.852C117.457 14.852 117.097 14.9033 116.817 15.006C116.537 15.1087 116.337 15.244 116.215 15.412C116.094 15.5707 116.033 15.7573 116.033 15.972C116.033 16.224 116.136 16.4293 116.341 16.588C116.547 16.7373 116.817 16.8587 117.153 16.952C117.489 17.0453 117.858 17.1387 118.259 17.232C118.67 17.3253 119.076 17.4327 119.477 17.554C119.888 17.6753 120.261 17.8387 120.597 18.044C120.933 18.2493 121.204 18.52 121.409 18.856C121.624 19.192 121.731 19.6167 121.731 20.13C121.731 20.6807 121.577 21.1847 121.269 21.642C120.961 22.0993 120.499 22.468 119.883 22.748C119.277 23.028 118.507 23.168 117.573 23.168ZM126.501 23.168C125.717 23.168 124.966 23.0653 124.247 22.86C123.528 22.6453 122.95 22.37 122.511 22.034L123.281 20.326C123.701 20.6247 124.196 20.872 124.765 21.068C125.344 21.2547 125.927 21.348 126.515 21.348C126.963 21.348 127.322 21.306 127.593 21.222C127.873 21.1287 128.078 21.0027 128.209 20.844C128.34 20.6853 128.405 20.5033 128.405 20.298C128.405 20.0367 128.302 19.8313 128.097 19.682C127.892 19.5233 127.621 19.3973 127.285 19.304C126.949 19.2013 126.576 19.108 126.165 19.024C125.764 18.9307 125.358 18.8187 124.947 18.688C124.546 18.5573 124.177 18.3893 123.841 18.184C123.505 17.9787 123.23 17.708 123.015 17.372C122.81 17.036 122.707 16.6067 122.707 16.084C122.707 15.524 122.856 15.0153 123.155 14.558C123.463 14.0913 123.92 13.7227 124.527 13.452C125.143 13.172 125.913 13.032 126.837 13.032C127.453 13.032 128.06 13.1067 128.657 13.256C129.254 13.396 129.782 13.6107 130.239 13.9L129.539 15.622C129.082 15.3607 128.624 15.1693 128.167 15.048C127.71 14.9173 127.262 14.852 126.823 14.852C126.384 14.852 126.025 14.9033 125.745 15.006C125.465 15.1087 125.264 15.244 125.143 15.412C125.022 15.5707 124.961 15.7573 124.961 15.972C124.961 16.224 125.064 16.4293 125.269 16.588C125.474 16.7373 125.745 16.8587 126.081 16.952C126.417 17.0453 126.786 17.1387 127.187 17.232C127.598 17.3253 128.004 17.4327 128.405 17.554C128.816 17.6753 129.189 17.8387 129.525 18.044C129.861 18.2493 130.132 18.52 130.337 18.856C130.552 19.192 130.659 19.6167 130.659 20.13C130.659 20.6807 130.505 21.1847 130.197 21.642C129.889 22.0993 129.427 22.468 128.811 22.748C128.204 23.028 127.434 23.168 126.501 23.168ZM132.209 23V13.2H136.661C137.725 13.2 138.663 13.4053 139.475 13.816C140.287 14.2173 140.922 14.782 141.379 15.51C141.836 16.238 142.065 17.1013 142.065 18.1C142.065 19.0893 141.836 19.9527 141.379 20.69C140.922 21.418 140.287 21.9873 139.475 22.398C138.663 22.7993 137.725 23 136.661 23H132.209ZM134.477 21.138H136.549C137.202 21.138 137.767 21.0167 138.243 20.774C138.728 20.522 139.102 20.1673 139.363 19.71C139.634 19.2527 139.769 18.716 139.769 18.1C139.769 17.4747 139.634 16.938 139.363 16.49C139.102 16.0327 138.728 15.6827 138.243 15.44C137.767 15.188 137.202 15.062 136.549 15.062H134.477V21.138Z" fill="#4E4E4E"/>
<circle cx="17.5" cy="17.5" r="17.5" fill="#FF7A00" fill-opacity="0.15"/>
<path d="M7.5 17.5C7.5 17.721 7.5878 17.933 7.74408 18.0892C7.90036 18.2455 8.11232 18.3333 8.33333 18.3333H24.655L21.0783 21.91C20.9265 22.0672 20.8425 22.2777 20.8444 22.4962C20.8463 22.7147 20.934 22.9237 21.0885 23.0782C21.243 23.2327 21.452 23.3203 21.6705 23.3222C21.889 23.3241 22.0995 23.2401 22.2567 23.0883L27.2567 18.0883C27.3338 18.0117 27.395 17.9205 27.4367 17.8201C27.4785 17.7197 27.5 17.6121 27.5 17.5033V17.5C27.5 17.3917 27.4783 17.2833 27.435 17.1817C27.3935 17.0806 27.3323 16.9889 27.255 16.9117L22.255 11.9117C22.0978 11.7599 21.8873 11.6759 21.6688 11.6778C21.4503 11.6797 21.2413 11.7673 21.0868 11.9218C20.9323 12.0763 20.8447 12.2853 20.8428 12.5038C20.8409 12.7223 20.9249 12.9328 21.0767 13.09L24.655 16.6667H8.33333C8.11232 16.6667 7.90036 16.7545 7.74408 16.9107C7.5878 17.067 7.5 17.279 7.5 17.5Z" fill="#4E4E4E"/>
</svg>
