<svg width="210" height="35" viewBox="0 0 210 35" fill="none" xmlns="http://www.w3.org/2000/svg">
<path d="M50.852 22.668C49.8533 22.668 48.948 22.4533 48.136 22.024C47.3333 21.5853 46.6987 20.9833 46.232 20.218C45.7747 19.4433 45.546 18.5707 45.546 17.6C45.546 16.6293 45.7747 15.7613 46.232 14.996C46.6987 14.2213 47.3333 13.6193 48.136 13.19C48.948 12.7513 49.858 12.532 50.866 12.532C51.7153 12.532 52.4807 12.6813 53.162 12.98C53.8527 13.2787 54.4313 13.708 54.898 14.268L53.442 15.612C52.7793 14.8467 51.958 14.464 50.978 14.464C50.3713 14.464 49.83 14.5993 49.354 14.87C48.878 15.1313 48.5047 15.5 48.234 15.976C47.9727 16.452 47.842 16.9933 47.842 17.6C47.842 18.2067 47.9727 18.748 48.234 19.224C48.5047 19.7 48.878 20.0733 49.354 20.344C49.83 20.6053 50.3713 20.736 50.978 20.736C51.958 20.736 52.7793 20.3487 53.442 19.574L54.898 20.918C54.4313 21.4873 53.8527 21.9213 53.162 22.22C52.4713 22.5187 51.7013 22.668 50.852 22.668ZM59.5998 22.612C58.8065 22.612 58.0925 22.4487 57.4578 22.122C56.8325 21.786 56.3425 21.324 55.9878 20.736C55.6331 20.148 55.4558 19.4807 55.4558 18.734C55.4558 17.9873 55.6331 17.32 55.9878 16.732C56.3425 16.144 56.8325 15.6867 57.4578 15.36C58.0925 15.024 58.8065 14.856 59.5998 14.856C60.3931 14.856 61.1025 15.024 61.7278 15.36C62.3531 15.6867 62.8431 16.144 63.1978 16.732C63.5525 17.32 63.7298 17.9873 63.7298 18.734C63.7298 19.4807 63.5525 20.148 63.1978 20.736C62.8431 21.324 62.3531 21.786 61.7278 22.122C61.1025 22.4487 60.3931 22.612 59.5998 22.612ZM59.5998 20.82C60.1598 20.82 60.6171 20.6333 60.9718 20.26C61.3358 19.8773 61.5178 19.3687 61.5178 18.734C61.5178 18.0993 61.3358 17.5953 60.9718 17.222C60.6171 16.8393 60.1598 16.648 59.5998 16.648C59.0398 16.648 58.5778 16.8393 58.2138 17.222C57.8498 17.5953 57.6678 18.0993 57.6678 18.734C57.6678 19.3687 57.8498 19.8773 58.2138 20.26C58.5778 20.6333 59.0398 20.82 59.5998 20.82ZM67.2756 15.962C67.537 15.598 67.887 15.3227 68.3256 15.136C68.7736 14.9493 69.287 14.856 69.8656 14.856V16.872C69.623 16.8533 69.4596 16.844 69.3756 16.844C68.7503 16.844 68.2603 17.0213 67.9056 17.376C67.551 17.7213 67.3736 18.244 67.3736 18.944V22.5H65.1896V14.968H67.2756V15.962ZM74.1612 14.856C75.3279 14.856 76.2239 15.136 76.8492 15.696C77.4746 16.2467 77.7872 17.082 77.7872 18.202V22.5H75.7432V21.562C75.3326 22.262 74.5672 22.612 73.4472 22.612C72.8686 22.612 72.3646 22.514 71.9352 22.318C71.5152 22.122 71.1932 21.8513 70.9692 21.506C70.7452 21.1607 70.6332 20.7687 70.6332 20.33C70.6332 19.63 70.8946 19.0793 71.4172 18.678C71.9492 18.2767 72.7659 18.076 73.8672 18.076H75.6032C75.6032 17.6 75.4586 17.236 75.1692 16.984C74.8799 16.7227 74.4459 16.592 73.8672 16.592C73.4659 16.592 73.0692 16.6573 72.6772 16.788C72.2946 16.9093 71.9679 17.0773 71.6972 17.292L70.9132 15.766C71.3239 15.4767 71.8139 15.2527 72.3832 15.094C72.9619 14.9353 73.5546 14.856 74.1612 14.856ZM73.9932 21.142C74.3666 21.142 74.6979 21.058 74.9872 20.89C75.2766 20.7127 75.4819 20.456 75.6032 20.12V19.35H74.1052C73.2092 19.35 72.7612 19.644 72.7612 20.232C72.7612 20.512 72.8686 20.736 73.0832 20.904C73.3072 21.0627 73.6106 21.142 73.9932 21.142ZM79.7639 12.112H81.9479V22.5H79.7639V12.112ZM88.0936 12.7H90.3616V22.5H88.0936V12.7ZM97.1114 14.856C98.0447 14.856 98.7961 15.136 99.3654 15.696C99.9441 16.256 100.233 17.0867 100.233 18.188V22.5H98.0494V18.524C98.0494 17.9267 97.9187 17.4833 97.6574 17.194C97.3961 16.8953 97.0181 16.746 96.5234 16.746C95.9727 16.746 95.5341 16.9187 95.2074 17.264C94.8807 17.6 94.7174 18.104 94.7174 18.776V22.5H92.5334V14.968H94.6194V15.85C94.9087 15.5327 95.2681 15.29 95.6974 15.122C96.1267 14.9447 96.5981 14.856 97.1114 14.856ZM104.747 22.612C104.122 22.612 103.51 22.5373 102.913 22.388C102.316 22.2293 101.84 22.0333 101.485 21.8L102.213 20.232C102.549 20.4467 102.955 20.624 103.431 20.764C103.907 20.8947 104.374 20.96 104.831 20.96C105.755 20.96 106.217 20.7313 106.217 20.274C106.217 20.0593 106.091 19.9053 105.839 19.812C105.587 19.7187 105.2 19.6393 104.677 19.574C104.061 19.4807 103.552 19.3733 103.151 19.252C102.75 19.1307 102.4 18.916 102.101 18.608C101.812 18.3 101.667 17.8613 101.667 17.292C101.667 16.816 101.802 16.396 102.073 16.032C102.353 15.6587 102.754 15.3693 103.277 15.164C103.809 14.9587 104.434 14.856 105.153 14.856C105.685 14.856 106.212 14.9167 106.735 15.038C107.267 15.15 107.706 15.3087 108.051 15.514L107.323 17.068C106.66 16.6947 105.937 16.508 105.153 16.508C104.686 16.508 104.336 16.5733 104.103 16.704C103.87 16.8347 103.753 17.0027 103.753 17.208C103.753 17.4413 103.879 17.6047 104.131 17.698C104.383 17.7913 104.784 17.88 105.335 17.964C105.951 18.0667 106.455 18.1787 106.847 18.3C107.239 18.412 107.58 18.622 107.869 18.93C108.158 19.238 108.303 19.6673 108.303 20.218C108.303 20.6847 108.163 21.1 107.883 21.464C107.603 21.828 107.192 22.1127 106.651 22.318C106.119 22.514 105.484 22.612 104.747 22.612ZM114.509 22.136C114.294 22.2947 114.028 22.416 113.711 22.5C113.403 22.5747 113.076 22.612 112.731 22.612C111.835 22.612 111.139 22.3833 110.645 21.926C110.159 21.4687 109.917 20.7967 109.917 19.91V16.816H108.755V15.136H109.917V13.302H112.101V15.136H113.977V16.816H112.101V19.882C112.101 20.1993 112.18 20.4467 112.339 20.624C112.507 20.792 112.74 20.876 113.039 20.876C113.384 20.876 113.678 20.7827 113.921 20.596L114.509 22.136ZM118.773 14.856C119.939 14.856 120.835 15.136 121.461 15.696C122.086 16.2467 122.399 17.082 122.399 18.202V22.5H120.355V21.562C119.944 22.262 119.179 22.612 118.059 22.612C117.48 22.612 116.976 22.514 116.547 22.318C116.127 22.122 115.805 21.8513 115.581 21.506C115.357 21.1607 115.245 20.7687 115.245 20.33C115.245 19.63 115.506 19.0793 116.029 18.678C116.561 18.2767 117.377 18.076 118.479 18.076H120.215C120.215 17.6 120.07 17.236 119.781 16.984C119.491 16.7227 119.057 16.592 118.479 16.592C118.077 16.592 117.681 16.6573 117.289 16.788C116.906 16.9093 116.579 17.0773 116.309 17.292L115.525 15.766C115.935 15.4767 116.425 15.2527 116.995 15.094C117.573 14.9353 118.166 14.856 118.773 14.856ZM118.605 21.142C118.978 21.142 119.309 21.058 119.599 20.89C119.888 20.7127 120.093 20.456 120.215 20.12V19.35H118.717C117.821 19.35 117.373 19.644 117.373 20.232C117.373 20.512 117.48 20.736 117.695 20.904C117.919 21.0627 118.222 21.142 118.605 21.142ZM128.953 14.856C129.887 14.856 130.638 15.136 131.207 15.696C131.786 16.256 132.075 17.0867 132.075 18.188V22.5H129.891V18.524C129.891 17.9267 129.761 17.4833 129.499 17.194C129.238 16.8953 128.86 16.746 128.365 16.746C127.815 16.746 127.376 16.9187 127.049 17.264C126.723 17.6 126.559 18.104 126.559 18.776V22.5H124.375V14.968H126.461V15.85C126.751 15.5327 127.11 15.29 127.539 15.122C127.969 14.9447 128.44 14.856 128.953 14.856ZM138.913 22.136C138.698 22.2947 138.432 22.416 138.115 22.5C137.807 22.5747 137.48 22.612 137.135 22.612C136.239 22.612 135.544 22.3833 135.049 21.926C134.564 21.4687 134.321 20.7967 134.321 19.91V16.816H133.159V15.136H134.321V13.302H136.505V15.136H138.381V16.816H136.505V19.882C136.505 20.1993 136.584 20.4467 136.743 20.624C136.911 20.792 137.144 20.876 137.443 20.876C137.788 20.876 138.082 20.7827 138.325 20.596L138.913 22.136ZM148.5 12.7C149.368 12.7 150.119 12.8447 150.754 13.134C151.398 13.4233 151.892 13.834 152.238 14.366C152.583 14.898 152.756 15.528 152.756 16.256C152.756 16.9747 152.583 17.6047 152.238 18.146C151.892 18.678 151.398 19.0887 150.754 19.378C150.119 19.658 149.368 19.798 148.5 19.798H146.526V22.5H144.258V12.7H148.5ZM148.374 17.95C149.055 17.95 149.573 17.8053 149.928 17.516C150.282 17.2173 150.46 16.7973 150.46 16.256C150.46 15.7053 150.282 15.2853 149.928 14.996C149.573 14.6973 149.055 14.548 148.374 14.548H146.526V17.95H148.374ZM157.191 14.856C158.357 14.856 159.253 15.136 159.879 15.696C160.504 16.2467 160.817 17.082 160.817 18.202V22.5H158.773V21.562C158.362 22.262 157.597 22.612 156.477 22.612C155.898 22.612 155.394 22.514 154.965 22.318C154.545 22.122 154.223 21.8513 153.999 21.506C153.775 21.1607 153.663 20.7687 153.663 20.33C153.663 19.63 153.924 19.0793 154.447 18.678C154.979 18.2767 155.795 18.076 156.897 18.076H158.633C158.633 17.6 158.488 17.236 158.199 16.984C157.909 16.7227 157.475 16.592 156.897 16.592C156.495 16.592 156.099 16.6573 155.707 16.788C155.324 16.9093 154.997 17.0773 154.727 17.292L153.943 15.766C154.353 15.4767 154.843 15.2527 155.413 15.094C155.991 14.9353 156.584 14.856 157.191 14.856ZM157.023 21.142C157.396 21.142 157.727 21.058 158.017 20.89C158.306 20.7127 158.511 20.456 158.633 20.12V19.35H157.135C156.239 19.35 155.791 19.644 155.791 20.232C155.791 20.512 155.898 20.736 156.113 20.904C156.337 21.0627 156.64 21.142 157.023 21.142ZM170.132 14.968L166.73 22.962C166.385 23.83 165.956 24.4413 165.442 24.796C164.938 25.1507 164.327 25.328 163.608 25.328C163.216 25.328 162.829 25.2673 162.446 25.146C162.064 25.0247 161.751 24.8567 161.508 24.642L162.306 23.088C162.474 23.2373 162.666 23.354 162.88 23.438C163.104 23.522 163.324 23.564 163.538 23.564C163.837 23.564 164.08 23.4893 164.266 23.34C164.453 23.2 164.621 22.962 164.77 22.626L164.798 22.556L161.536 14.968H163.79L165.904 20.078L168.032 14.968H170.132ZM180.67 14.856C181.612 14.856 182.359 15.136 182.91 15.696C183.47 16.2467 183.75 17.0773 183.75 18.188V22.5H181.566V18.524C181.566 17.9267 181.44 17.4833 181.188 17.194C180.945 16.8953 180.595 16.746 180.138 16.746C179.624 16.746 179.218 16.914 178.92 17.25C178.621 17.5767 178.472 18.0667 178.472 18.72V22.5H176.288V18.524C176.288 17.3387 175.812 16.746 174.86 16.746C174.356 16.746 173.954 16.914 173.656 17.25C173.357 17.5767 173.208 18.0667 173.208 18.72V22.5H171.024V14.968H173.11V15.836C173.39 15.5187 173.73 15.276 174.132 15.108C174.542 14.94 174.99 14.856 175.476 14.856C176.008 14.856 176.488 14.9633 176.918 15.178C177.347 15.3833 177.692 15.6867 177.954 16.088C178.262 15.696 178.649 15.3927 179.116 15.178C179.592 14.9633 180.11 14.856 180.67 14.856ZM193.167 18.762C193.167 18.79 193.153 18.986 193.125 19.35H187.427C187.53 19.8167 187.773 20.1853 188.155 20.456C188.538 20.7267 189.014 20.862 189.583 20.862C189.975 20.862 190.321 20.806 190.619 20.694C190.927 20.5727 191.212 20.386 191.473 20.134L192.635 21.394C191.926 22.206 190.89 22.612 189.527 22.612C188.678 22.612 187.927 22.4487 187.273 22.122C186.62 21.786 186.116 21.324 185.761 20.736C185.407 20.148 185.229 19.4807 185.229 18.734C185.229 17.9967 185.402 17.334 185.747 16.746C186.102 16.1487 186.583 15.6867 187.189 15.36C187.805 15.024 188.491 14.856 189.247 14.856C189.985 14.856 190.652 15.0147 191.249 15.332C191.847 15.6493 192.313 16.1067 192.649 16.704C192.995 17.292 193.167 17.978 193.167 18.762ZM189.261 16.508C188.767 16.508 188.351 16.648 188.015 16.928C187.679 17.208 187.474 17.5907 187.399 18.076H191.109C191.035 17.6 190.829 17.222 190.493 16.942C190.157 16.6527 189.747 16.508 189.261 16.508ZM199.199 14.856C200.133 14.856 200.884 15.136 201.453 15.696C202.032 16.256 202.321 17.0867 202.321 18.188V22.5H200.137V18.524C200.137 17.9267 200.007 17.4833 199.745 17.194C199.484 16.8953 199.106 16.746 198.611 16.746C198.061 16.746 197.622 16.9187 197.295 17.264C196.969 17.6 196.805 18.104 196.805 18.776V22.5H194.621V14.968H196.707V15.85C196.997 15.5327 197.356 15.29 197.785 15.122C198.215 14.9447 198.686 14.856 199.199 14.856ZM209.159 22.136C208.944 22.2947 208.678 22.416 208.361 22.5C208.053 22.5747 207.726 22.612 207.381 22.612C206.485 22.612 205.79 22.3833 205.295 21.926C204.81 21.4687 204.567 20.7967 204.567 19.91V16.816H203.405V15.136H204.567V13.302H206.751V15.136H208.627V16.816H206.751V19.882C206.751 20.1993 206.83 20.4467 206.989 20.624C207.157 20.792 207.39 20.876 207.689 20.876C208.034 20.876 208.328 20.7827 208.571 20.596L209.159 22.136Z" fill="#4E4E4E"/>
<circle cx="17.5" cy="17.5" r="17.5" fill="#8F00FF" fill-opacity="0.15"/>
<path d="M7.5 17.5C7.5 17.721 7.5878 17.933 7.74408 18.0892C7.90036 18.2455 8.11232 18.3333 8.33333 18.3333H24.655L21.0783 21.91C20.9265 22.0672 20.8425 22.2777 20.8444 22.4962C20.8463 22.7147 20.934 22.9237 21.0885 23.0782C21.243 23.2327 21.452 23.3203 21.6705 23.3222C21.889 23.3241 22.0995 23.2401 22.2567 23.0883L27.2567 18.0883C27.3338 18.0117 27.395 17.9205 27.4367 17.8201C27.4785 17.7197 27.5 17.6121 27.5 17.5033V17.5C27.5 17.3917 27.4783 17.2833 27.435 17.1817C27.3935 17.0806 27.3323 16.9889 27.255 16.9117L22.255 11.9117C22.0978 11.7599 21.8873 11.6759 21.6688 11.6778C21.4503 11.6797 21.2413 11.7673 21.0868 11.9218C20.9323 12.0763 20.8447 12.2853 20.8428 12.5038C20.8409 12.7223 20.9249 12.9328 21.0767 13.09L24.655 16.6667H8.33333C8.11232 16.6667 7.90036 16.7545 7.74408 16.9107C7.5878 17.067 7.5 17.279 7.5 17.5Z" fill="#4E4E4E"/>
</svg>
