<svg width="77" height="35" viewBox="0 0 77 35" fill="none" xmlns="http://www.w3.org/2000/svg">
<path d="M50.852 22.668C49.8533 22.668 48.948 22.4533 48.136 22.024C47.3333 21.5853 46.6987 20.9833 46.232 20.218C45.7747 19.4433 45.546 18.5707 45.546 17.6C45.546 16.6293 45.7747 15.7613 46.232 14.996C46.6987 14.2213 47.3333 13.6193 48.136 13.19C48.948 12.7513 49.858 12.532 50.866 12.532C51.7153 12.532 52.4807 12.6813 53.162 12.98C53.8527 13.2787 54.4313 13.708 54.898 14.268L53.442 15.612C52.7793 14.8467 51.958 14.464 50.978 14.464C50.3713 14.464 49.83 14.5993 49.354 14.87C48.878 15.1313 48.5047 15.5 48.234 15.976C47.9727 16.452 47.842 16.9933 47.842 17.6C47.842 18.2067 47.9727 18.748 48.234 19.224C48.5047 19.7 48.878 20.0733 49.354 20.344C49.83 20.6053 50.3713 20.736 50.978 20.736C51.958 20.736 52.7793 20.3487 53.442 19.574L54.898 20.918C54.4313 21.4873 53.8527 21.9213 53.162 22.22C52.4713 22.5187 51.7013 22.668 50.852 22.668ZM60.6716 12.7C61.5396 12.7 62.2909 12.8447 62.9256 13.134C63.5696 13.4233 64.0642 13.834 64.4096 14.366C64.7549 14.898 64.9276 15.528 64.9276 16.256C64.9276 16.9747 64.7549 17.6047 64.4096 18.146C64.0642 18.678 63.5696 19.0887 62.9256 19.378C62.2909 19.658 61.5396 19.798 60.6716 19.798H58.6976V22.5H56.4296V12.7H60.6716ZM60.5456 17.95C61.2269 17.95 61.7449 17.8053 62.0996 17.516C62.4542 17.2173 62.6316 16.7973 62.6316 16.256C62.6316 15.7053 62.4542 15.2853 62.0996 14.996C61.7449 14.6973 61.2269 14.548 60.5456 14.548H58.6976V17.95H60.5456ZM73.3055 17.446H75.3775V21.422C74.8455 21.8233 74.2295 22.1313 73.5295 22.346C72.8295 22.5607 72.1248 22.668 71.4155 22.668C70.3982 22.668 69.4835 22.4533 68.6715 22.024C67.8595 21.5853 67.2202 20.9833 66.7535 20.218C66.2962 19.4433 66.0675 18.5707 66.0675 17.6C66.0675 16.6293 66.2962 15.7613 66.7535 14.996C67.2202 14.2213 67.8642 13.6193 68.6855 13.19C69.5068 12.7513 70.4308 12.532 71.4575 12.532C72.3162 12.532 73.0955 12.6767 73.7955 12.966C74.4955 13.2553 75.0835 13.6753 75.5595 14.226L74.1035 15.57C73.4035 14.8327 72.5588 14.464 71.5695 14.464C70.9442 14.464 70.3888 14.5947 69.9035 14.856C69.4182 15.1173 69.0402 15.486 68.7695 15.962C68.4988 16.438 68.3635 16.984 68.3635 17.6C68.3635 18.2067 68.4988 18.748 68.7695 19.224C69.0402 19.7 69.4135 20.0733 69.8895 20.344C70.3748 20.6053 70.9255 20.736 71.5415 20.736C72.1948 20.736 72.7828 20.596 73.3055 20.316V17.446Z" fill="#4E4E4E"/>
<circle cx="17.5" cy="17.5" r="17.5" fill="#22AC00" fill-opacity="0.15"/>
<path d="M7.5 17.5C7.5 17.721 7.5878 17.933 7.74408 18.0892C7.90036 18.2455 8.11232 18.3333 8.33333 18.3333H24.655L21.0783 21.91C20.9265 22.0672 20.8425 22.2777 20.8444 22.4962C20.8463 22.7147 20.934 22.9237 21.0885 23.0782C21.243 23.2327 21.452 23.3203 21.6705 23.3222C21.889 23.3241 22.0995 23.2401 22.2567 23.0883L27.2567 18.0883C27.3338 18.0117 27.395 17.9205 27.4367 17.8201C27.4785 17.7197 27.5 17.6121 27.5 17.5033V17.5C27.5 17.3917 27.4783 17.2833 27.435 17.1817C27.3935 17.0806 27.3323 16.9889 27.255 16.9117L22.255 11.9117C22.0978 11.7599 21.8873 11.6759 21.6688 11.6778C21.4503 11.6797 21.2413 11.7673 21.0868 11.9218C20.9323 12.0763 20.8447 12.2853 20.8428 12.5038C20.8409 12.7223 20.9249 12.9328 21.0767 13.09L24.655 16.6667H8.33333C8.11232 16.6667 7.90036 16.7545 7.74408 16.9107C7.5878 17.067 7.5 17.279 7.5 17.5Z" fill="#4E4E4E"/>
</svg>
