<svg width="105" height="35" viewBox="0 0 105 35" fill="none" xmlns="http://www.w3.org/2000/svg">
<path d="M45.162 23V13.2H49.614C50.678 13.2 51.616 13.4053 52.428 13.816C53.24 14.2173 53.8747 14.782 54.332 15.51C54.7893 16.238 55.018 17.1013 55.018 18.1C55.018 19.0893 54.7893 19.9527 54.332 20.69C53.8747 21.418 53.24 21.9873 52.428 22.398C51.616 22.7993 50.678 23 49.614 23H45.162ZM47.43 21.138H49.502C50.1553 21.138 50.72 21.0167 51.196 20.774C51.6813 20.522 52.0547 20.1673 52.316 19.71C52.5867 19.2527 52.722 18.716 52.722 18.1C52.722 17.4747 52.5867 16.938 52.316 16.49C52.0547 16.0327 51.6813 15.6827 51.196 15.44C50.72 15.188 50.1553 15.062 49.502 15.062H47.43V21.138ZM56.5744 23V15.468H58.7584V23H56.5744ZM57.6664 14.418C57.2651 14.418 56.9384 14.3013 56.6864 14.068C56.4344 13.8347 56.3084 13.5453 56.3084 13.2C56.3084 12.8547 56.4344 12.5653 56.6864 12.332C56.9384 12.0987 57.2651 11.982 57.6664 11.982C58.0677 11.982 58.3944 12.094 58.6464 12.318C58.8984 12.5327 59.0244 12.8127 59.0244 13.158C59.0244 13.522 58.8984 13.8253 58.6464 14.068C58.4037 14.3013 58.0771 14.418 57.6664 14.418ZM64.3273 25.828C63.618 25.828 62.932 25.7393 62.2693 25.562C61.616 25.394 61.07 25.1373 60.6313 24.792L61.4993 23.224C61.8167 23.4853 62.218 23.6907 62.7033 23.84C63.198 23.9987 63.6833 24.078 64.1593 24.078C64.934 24.078 65.494 23.9053 65.8393 23.56C66.194 23.2147 66.3713 22.7013 66.3713 22.02V20.886L66.5113 18.996L66.4833 17.092V15.468H68.5553V21.74C68.5553 23.14 68.1913 24.1713 67.4633 24.834C66.7353 25.4967 65.69 25.828 64.3273 25.828ZM63.9913 22.636C63.2913 22.636 62.6567 22.4867 62.0873 22.188C61.5273 21.88 61.0747 21.4553 60.7293 20.914C60.3933 20.3633 60.2253 19.724 60.2253 18.996C60.2253 18.2587 60.3933 17.6193 60.7293 17.078C61.0747 16.5273 61.5273 16.1027 62.0873 15.804C62.6567 15.5053 63.2913 15.356 63.9913 15.356C64.626 15.356 65.186 15.4867 65.6713 15.748C66.1567 16 66.5347 16.3967 66.8053 16.938C67.076 17.47 67.2113 18.156 67.2113 18.996C67.2113 19.8267 67.076 20.5127 66.8053 21.054C66.5347 21.586 66.1567 21.9827 65.6713 22.244C65.186 22.5053 64.626 22.636 63.9913 22.636ZM64.4253 20.844C64.808 20.844 65.1487 20.7693 65.4473 20.62C65.746 20.4613 65.9793 20.242 66.1473 19.962C66.3153 19.682 66.3993 19.36 66.3993 18.996C66.3993 18.6227 66.3153 18.3007 66.1473 18.03C65.9793 17.75 65.746 17.5353 65.4473 17.386C65.1487 17.2273 64.808 17.148 64.4253 17.148C64.0427 17.148 63.702 17.2273 63.4033 17.386C63.1047 17.5353 62.8667 17.75 62.6893 18.03C62.5213 18.3007 62.4373 18.6227 62.4373 18.996C62.4373 19.36 62.5213 19.682 62.6893 19.962C62.8667 20.242 63.1047 20.4613 63.4033 20.62C63.702 20.7693 64.0427 20.844 64.4253 20.844ZM70.5881 23V15.468H72.7721V23H70.5881ZM71.6801 14.418C71.2787 14.418 70.9521 14.3013 70.7001 14.068C70.4481 13.8347 70.3221 13.5453 70.3221 13.2C70.3221 12.8547 70.4481 12.5653 70.7001 12.332C70.9521 12.0987 71.2787 11.982 71.6801 11.982C72.0814 11.982 72.4081 12.094 72.6601 12.318C72.9121 12.5327 73.0381 12.8127 73.0381 13.158C73.0381 13.522 72.9121 13.8253 72.6601 14.068C72.4174 14.3013 72.0907 14.418 71.6801 14.418ZM74.953 23V13.2H79.195C80.0723 13.2 80.8283 13.3447 81.463 13.634C82.0977 13.914 82.5877 14.32 82.933 14.852C83.2783 15.384 83.451 16.0187 83.451 16.756C83.451 17.484 83.2783 18.114 82.933 18.646C82.5877 19.178 82.0977 19.5887 81.463 19.878C80.8283 20.158 80.0723 20.298 79.195 20.298H76.213L77.221 19.276V23H74.953ZM77.221 19.528L76.213 18.45H79.069C79.769 18.45 80.2917 18.3007 80.637 18.002C80.9823 17.7033 81.155 17.288 81.155 16.756C81.155 16.2147 80.9823 15.7947 80.637 15.496C80.2917 15.1973 79.769 15.048 79.069 15.048H76.213L77.221 13.97V19.528ZM89.9669 23.168C89.1923 23.168 88.4736 23.042 87.8109 22.79C87.1576 22.538 86.5883 22.1833 86.1029 21.726C85.6269 21.2687 85.2536 20.732 84.9829 20.116C84.7216 19.5 84.5909 18.828 84.5909 18.1C84.5909 17.372 84.7216 16.7 84.9829 16.084C85.2536 15.468 85.6316 14.9313 86.1169 14.474C86.6023 14.0167 87.1716 13.662 87.8249 13.41C88.4783 13.158 89.1876 13.032 89.9529 13.032C90.7276 13.032 91.4369 13.158 92.0809 13.41C92.7343 13.662 93.2989 14.0167 93.7749 14.474C94.2603 14.9313 94.6383 15.468 94.9089 16.084C95.1796 16.6907 95.3149 17.3627 95.3149 18.1C95.3149 18.828 95.1796 19.5047 94.9089 20.13C94.6383 20.746 94.2603 21.2827 93.7749 21.74C93.2989 22.188 92.7343 22.538 92.0809 22.79C91.4369 23.042 90.7323 23.168 89.9669 23.168ZM89.9529 21.236C90.3916 21.236 90.7929 21.1613 91.1569 21.012C91.5303 20.8627 91.8569 20.648 92.1369 20.368C92.4169 20.088 92.6316 19.7567 92.7809 19.374C92.9396 18.9913 93.0189 18.5667 93.0189 18.1C93.0189 17.6333 92.9396 17.2087 92.7809 16.826C92.6316 16.4433 92.4169 16.112 92.1369 15.832C91.8663 15.552 91.5443 15.3373 91.1709 15.188C90.7976 15.0387 90.3916 14.964 89.9529 14.964C89.5143 14.964 89.1083 15.0387 88.7349 15.188C88.3709 15.3373 88.0489 15.552 87.7689 15.832C87.4889 16.112 87.2696 16.4433 87.1109 16.826C86.9616 17.2087 86.8869 17.6333 86.8869 18.1C86.8869 18.5573 86.9616 18.982 87.1109 19.374C87.2696 19.7567 87.4843 20.088 87.7549 20.368C88.0349 20.648 88.3616 20.8627 88.7349 21.012C89.1083 21.1613 89.5143 21.236 89.9529 21.236ZM100.239 23.168C99.4554 23.168 98.7041 23.0653 97.9854 22.86C97.2668 22.6453 96.6881 22.37 96.2494 22.034L97.0194 20.326C97.4394 20.6247 97.9341 20.872 98.5034 21.068C99.0821 21.2547 99.6654 21.348 100.253 21.348C100.701 21.348 101.061 21.306 101.331 21.222C101.611 21.1287 101.817 21.0027 101.947 20.844C102.078 20.6853 102.143 20.5033 102.143 20.298C102.143 20.0367 102.041 19.8313 101.835 19.682C101.63 19.5233 101.359 19.3973 101.023 19.304C100.687 19.2013 100.314 19.108 99.9034 19.024C99.5021 18.9307 99.0961 18.8187 98.6854 18.688C98.2841 18.5573 97.9154 18.3893 97.5794 18.184C97.2434 17.9787 96.9681 17.708 96.7534 17.372C96.5481 17.036 96.4454 16.6067 96.4454 16.084C96.4454 15.524 96.5948 15.0153 96.8934 14.558C97.2014 14.0913 97.6588 13.7227 98.2654 13.452C98.8814 13.172 99.6514 13.032 100.575 13.032C101.191 13.032 101.798 13.1067 102.395 13.256C102.993 13.396 103.52 13.6107 103.977 13.9L103.277 15.622C102.82 15.3607 102.363 15.1693 101.905 15.048C101.448 14.9173 101 14.852 100.561 14.852C100.123 14.852 99.7634 14.9033 99.4834 15.006C99.2034 15.1087 99.0028 15.244 98.8814 15.412C98.7601 15.5707 98.6994 15.7573 98.6994 15.972C98.6994 16.224 98.8021 16.4293 99.0074 16.588C99.2128 16.7373 99.4834 16.8587 99.8194 16.952C100.155 17.0453 100.524 17.1387 100.925 17.232C101.336 17.3253 101.742 17.4327 102.143 17.554C102.554 17.6753 102.927 17.8387 103.263 18.044C103.599 18.2493 103.87 18.52 104.075 18.856C104.29 19.192 104.397 19.6167 104.397 20.13C104.397 20.6807 104.243 21.1847 103.935 21.642C103.627 22.0993 103.165 22.468 102.549 22.748C101.943 23.028 101.173 23.168 100.239 23.168Z" fill="#4E4E4E"/>
<circle cx="17.5" cy="17.5" r="17.5" fill="#D8AA09" fill-opacity="0.15"/>
<path d="M7.5 18C7.5 18.221 7.5878 18.433 7.74408 18.5892C7.90036 18.7455 8.11232 18.8333 8.33333 18.8333H24.655L21.0783 22.41C20.9265 22.5672 20.8425 22.7777 20.8444 22.9962C20.8463 23.2147 20.934 23.4237 21.0885 23.5782C21.243 23.7327 21.452 23.8203 21.6705 23.8222C21.889 23.8241 22.0995 23.7401 22.2567 23.5883L27.2567 18.5883C27.3338 18.5117 27.395 18.4205 27.4367 18.3201C27.4785 18.2197 27.5 18.1121 27.5 18.0033V18C27.5 17.8917 27.4783 17.7833 27.435 17.6817C27.3935 17.5806 27.3323 17.4889 27.255 17.4117L22.255 12.4117C22.0978 12.2599 21.8873 12.1759 21.6688 12.1778C21.4503 12.1797 21.2413 12.2673 21.0868 12.4218C20.9323 12.5763 20.8447 12.7853 20.8428 13.0038C20.8409 13.2223 20.9249 13.4328 21.0767 13.59L24.655 17.1667H8.33333C8.11232 17.1667 7.90036 17.2545 7.74408 17.4107C7.5878 17.567 7.5 17.779 7.5 18Z" fill="black"/>
</svg>
