<svg width="78" height="35" viewBox="0 0 78 35" fill="none" xmlns="http://www.w3.org/2000/svg">
<path d="M54.15 12.7V22.5H52.288L47.402 16.55V22.5H45.162V12.7H47.038L51.91 18.65V12.7H54.15ZM67.0666 23.55C66.7493 23.942 66.362 24.2407 65.9046 24.446C65.4566 24.6513 64.962 24.754 64.4206 24.754C63.6926 24.754 63.0346 24.5953 62.4466 24.278C61.8586 23.97 61.1866 23.4193 60.4306 22.626C59.544 22.514 58.7506 22.2293 58.0506 21.772C57.36 21.3147 56.8186 20.7267 56.4266 20.008C56.044 19.28 55.8526 18.4773 55.8526 17.6C55.8526 16.6387 56.0813 15.7753 56.5386 15.01C57.0053 14.2353 57.6446 13.6287 58.4566 13.19C59.278 12.7513 60.1973 12.532 61.2146 12.532C62.232 12.532 63.1466 12.7513 63.9586 13.19C64.7706 13.6287 65.41 14.2353 65.8766 15.01C66.3433 15.7753 66.5766 16.6387 66.5766 17.6C66.5766 18.7387 66.2546 19.7373 65.6106 20.596C64.976 21.4547 64.1313 22.052 63.0766 22.388C63.31 22.6307 63.534 22.8033 63.7486 22.906C63.9726 23.018 64.2106 23.074 64.4626 23.074C65.0693 23.074 65.6013 22.8313 66.0586 22.346L67.0666 23.55ZM58.1486 17.6C58.1486 18.2067 58.2793 18.748 58.5406 19.224C58.8113 19.7 59.18 20.0733 59.6466 20.344C60.1133 20.6053 60.636 20.736 61.2146 20.736C61.7933 20.736 62.316 20.6053 62.7826 20.344C63.2493 20.0733 63.6133 19.7 63.8746 19.224C64.1453 18.748 64.2806 18.2067 64.2806 17.6C64.2806 16.9933 64.1453 16.452 63.8746 15.976C63.6133 15.5 63.2493 15.1313 62.7826 14.87C62.316 14.5993 61.7933 14.464 61.2146 14.464C60.636 14.464 60.1133 14.5993 59.6466 14.87C59.18 15.1313 58.8113 15.5 58.5406 15.976C58.2793 16.452 58.1486 16.9933 58.1486 17.6ZM74.5251 22.5L72.6351 19.77H72.5231H70.5491V22.5H68.2811V12.7H72.5231C73.3911 12.7 74.1425 12.8447 74.7771 13.134C75.4211 13.4233 75.9158 13.834 76.2611 14.366C76.6065 14.898 76.7791 15.528 76.7791 16.256C76.7791 16.984 76.6018 17.614 76.2471 18.146C75.9018 18.6687 75.4071 19.07 74.7631 19.35L76.9611 22.5H74.5251ZM74.4831 16.256C74.4831 15.7053 74.3058 15.2853 73.9511 14.996C73.5965 14.6973 73.0785 14.548 72.3971 14.548H70.5491V17.964H72.3971C73.0785 17.964 73.5965 17.8147 73.9511 17.516C74.3058 17.2173 74.4831 16.7973 74.4831 16.256Z" fill="#4E4E4E"/>
<circle cx="17.5" cy="17.5" r="17.5" fill="#0038FF" fill-opacity="0.15"/>
<path d="M7.5 17.5C7.5 17.721 7.5878 17.933 7.74408 18.0892C7.90036 18.2455 8.11232 18.3333 8.33333 18.3333H24.655L21.0783 21.91C20.9265 22.0672 20.8425 22.2777 20.8444 22.4962C20.8463 22.7147 20.934 22.9237 21.0885 23.0782C21.243 23.2327 21.452 23.3203 21.6705 23.3222C21.889 23.3241 22.0995 23.2401 22.2567 23.0883L27.2567 18.0883C27.3338 18.0117 27.395 17.9205 27.4367 17.8201C27.4785 17.7197 27.5 17.6121 27.5 17.5033V17.5C27.5 17.3917 27.4783 17.2833 27.435 17.1817C27.3935 17.0806 27.3323 16.9889 27.255 16.9117L22.255 11.9117C22.0978 11.7599 21.8873 11.6759 21.6688 11.6778C21.4503 11.6797 21.2413 11.7673 21.0868 11.9218C20.9323 12.0763 20.8447 12.2853 20.8428 12.5038C20.8409 12.7223 20.9249 12.9328 21.0767 13.09L24.655 16.6667H8.33333C8.11232 16.6667 7.90036 16.7545 7.74408 16.9107C7.5878 17.067 7.5 17.279 7.5 17.5Z" fill="black"/>
</svg>
