<svg width="147" height="35" viewBox="0 0 147 35" fill="none" xmlns="http://www.w3.org/2000/svg">
<path d="M50.404 12.7C51.272 12.7 52.0233 12.8447 52.658 13.134C53.302 13.4233 53.7967 13.834 54.142 14.366C54.4873 14.898 54.66 15.528 54.66 16.256C54.66 16.9747 54.4873 17.6047 54.142 18.146C53.7967 18.678 53.302 19.0887 52.658 19.378C52.0233 19.658 51.272 19.798 50.404 19.798H48.43V22.5H46.162V12.7H50.404ZM50.278 17.95C50.9593 17.95 51.4773 17.8053 51.832 17.516C52.1867 17.2173 52.364 16.7973 52.364 16.256C52.364 15.7053 52.1867 15.2853 51.832 14.996C51.4773 14.6973 50.9593 14.548 50.278 14.548H48.43V17.95H50.278ZM59.0948 14.856C60.2615 14.856 61.1575 15.136 61.7828 15.696C62.4082 16.2467 62.7208 17.082 62.7208 18.202V22.5H60.6768V21.562C60.2662 22.262 59.5008 22.612 58.3808 22.612C57.8022 22.612 57.2982 22.514 56.8688 22.318C56.4488 22.122 56.1268 21.8513 55.9028 21.506C55.6788 21.1607 55.5668 20.7687 55.5668 20.33C55.5668 19.63 55.8282 19.0793 56.3508 18.678C56.8828 18.2767 57.6995 18.076 58.8008 18.076H60.5368C60.5368 17.6 60.3922 17.236 60.1028 16.984C59.8135 16.7227 59.3795 16.592 58.8008 16.592C58.3995 16.592 58.0028 16.6573 57.6108 16.788C57.2282 16.9093 56.9015 17.0773 56.6308 17.292L55.8468 15.766C56.2575 15.4767 56.7475 15.2527 57.3168 15.094C57.8955 14.9353 58.4882 14.856 59.0948 14.856ZM58.9268 21.142C59.3002 21.142 59.6315 21.058 59.9208 20.89C60.2102 20.7127 60.4155 20.456 60.5368 20.12V19.35H59.0388C58.1428 19.35 57.6948 19.644 57.6948 20.232C57.6948 20.512 57.8022 20.736 58.0168 20.904C58.2408 21.0627 58.5442 21.142 58.9268 21.142ZM72.0367 14.968L68.6347 22.962C68.2894 23.83 67.8601 24.4413 67.3467 24.796C66.8427 25.1507 66.2314 25.328 65.5127 25.328C65.1207 25.328 64.7334 25.2673 64.3507 25.146C63.9681 25.0247 63.6554 24.8567 63.4127 24.642L64.2107 23.088C64.3787 23.2373 64.5701 23.354 64.7847 23.438C65.0087 23.522 65.2281 23.564 65.4427 23.564C65.7414 23.564 65.9841 23.4893 66.1707 23.34C66.3574 23.2 66.5254 22.962 66.6747 22.626L66.7027 22.556L63.4407 14.968H65.6947L67.8087 20.078L69.9367 14.968H72.0367ZM82.5739 14.856C83.5166 14.856 84.2633 15.136 84.8139 15.696C85.3739 16.2467 85.6539 17.0773 85.6539 18.188V22.5H83.4699V18.524C83.4699 17.9267 83.3439 17.4833 83.0919 17.194C82.8493 16.8953 82.4993 16.746 82.0419 16.746C81.5286 16.746 81.1226 16.914 80.8239 17.25C80.5253 17.5767 80.3759 18.0667 80.3759 18.72V22.5H78.1919V18.524C78.1919 17.3387 77.7159 16.746 76.7639 16.746C76.2599 16.746 75.8586 16.914 75.5599 17.25C75.2613 17.5767 75.1119 18.0667 75.1119 18.72V22.5H72.9279V14.968H75.0139V15.836C75.2939 15.5187 75.6346 15.276 76.0359 15.108C76.4466 14.94 76.8946 14.856 77.3799 14.856C77.9119 14.856 78.3926 14.9633 78.8219 15.178C79.2513 15.3833 79.5966 15.6867 79.8579 16.088C80.1659 15.696 80.5533 15.3927 81.0199 15.178C81.4959 14.9633 82.0139 14.856 82.5739 14.856ZM95.0715 18.762C95.0715 18.79 95.0575 18.986 95.0295 19.35H89.3315C89.4342 19.8167 89.6769 20.1853 90.0595 20.456C90.4422 20.7267 90.9182 20.862 91.4875 20.862C91.8795 20.862 92.2249 20.806 92.5235 20.694C92.8315 20.5727 93.1162 20.386 93.3775 20.134L94.5395 21.394C93.8302 22.206 92.7942 22.612 91.4315 22.612C90.5822 22.612 89.8309 22.4487 89.1775 22.122C88.5242 21.786 88.0202 21.324 87.6655 20.736C87.3109 20.148 87.1335 19.4807 87.1335 18.734C87.1335 17.9967 87.3062 17.334 87.6515 16.746C88.0062 16.1487 88.4869 15.6867 89.0935 15.36C89.7095 15.024 90.3955 14.856 91.1515 14.856C91.8889 14.856 92.5562 15.0147 93.1535 15.332C93.7509 15.6493 94.2175 16.1067 94.5535 16.704C94.8989 17.292 95.0715 17.978 95.0715 18.762ZM91.1655 16.508C90.6709 16.508 90.2555 16.648 89.9195 16.928C89.5835 17.208 89.3782 17.5907 89.3035 18.076H93.0135C92.9389 17.6 92.7335 17.222 92.3975 16.942C92.0615 16.6527 91.6509 16.508 91.1655 16.508ZM101.104 14.856C102.037 14.856 102.788 15.136 103.358 15.696C103.936 16.256 104.226 17.0867 104.226 18.188V22.5H102.042V18.524C102.042 17.9267 101.911 17.4833 101.65 17.194C101.388 16.8953 101.01 16.746 100.516 16.746C99.9649 16.746 99.5262 16.9187 99.1996 17.264C98.8729 17.6 98.7096 18.104 98.7096 18.776V22.5H96.5256V14.968H98.6116V15.85C98.9009 15.5327 99.2602 15.29 99.6896 15.122C100.119 14.9447 100.59 14.856 101.104 14.856ZM111.063 22.136C110.849 22.2947 110.583 22.416 110.265 22.5C109.957 22.5747 109.631 22.612 109.285 22.612C108.389 22.612 107.694 22.3833 107.199 21.926C106.714 21.4687 106.471 20.7967 106.471 19.91V16.816H105.309V15.136H106.471V13.302H108.655V15.136H110.531V16.816H108.655V19.882C108.655 20.1993 108.735 20.4467 108.893 20.624C109.061 20.792 109.295 20.876 109.593 20.876C109.939 20.876 110.233 20.7827 110.475 20.596L111.063 22.136ZM116.408 12.7H118.676V20.652H123.59V22.5H116.408V12.7ZM124.703 14.968H126.887V22.5H124.703V14.968ZM125.795 13.918C125.394 13.918 125.067 13.8013 124.815 13.568C124.563 13.3347 124.437 13.0453 124.437 12.7C124.437 12.3547 124.563 12.0653 124.815 11.832C125.067 11.5987 125.394 11.482 125.795 11.482C126.197 11.482 126.523 11.594 126.775 11.818C127.027 12.042 127.153 12.322 127.153 12.658C127.153 13.022 127.027 13.3253 126.775 13.568C126.523 13.8013 126.197 13.918 125.795 13.918ZM133.492 14.856C134.426 14.856 135.177 15.136 135.746 15.696C136.325 16.256 136.614 17.0867 136.614 18.188V22.5H134.43V18.524C134.43 17.9267 134.3 17.4833 134.038 17.194C133.777 16.8953 133.399 16.746 132.904 16.746C132.354 16.746 131.915 16.9187 131.588 17.264C131.262 17.6 131.098 18.104 131.098 18.776V22.5H128.914V14.968H131V15.85C131.29 15.5327 131.649 15.29 132.078 15.122C132.508 14.9447 132.979 14.856 133.492 14.856ZM141.828 19.546L140.778 20.582V22.5H138.594V12.112H140.778V17.992L143.97 14.968H146.574L143.438 18.16L146.854 22.5H144.208L141.828 19.546Z" fill="#4E4E4E"/>
<circle cx="17.5" cy="17.5" r="17.5" fill="#9EAC00" fill-opacity="0.15"/>
<path d="M7.5 17.5C7.5 17.721 7.5878 17.933 7.74408 18.0892C7.90036 18.2455 8.11232 18.3333 8.33333 18.3333H24.655L21.0783 21.91C20.9265 22.0672 20.8425 22.2777 20.8444 22.4962C20.8463 22.7147 20.934 22.9237 21.0885 23.0782C21.243 23.2327 21.452 23.3203 21.6705 23.3222C21.889 23.3241 22.0995 23.2401 22.2567 23.0883L27.2567 18.0883C27.3338 18.0117 27.395 17.9205 27.4367 17.8201C27.4785 17.7197 27.5 17.6121 27.5 17.5033V17.5C27.5 17.3917 27.4783 17.2833 27.435 17.1817C27.3935 17.0806 27.3323 16.9889 27.255 16.9117L22.255 11.9117C22.0978 11.7599 21.8873 11.6759 21.6688 11.6778C21.4503 11.6797 21.2413 11.7673 21.0868 11.9218C20.9323 12.0763 20.8447 12.2853 20.8428 12.5038C20.8409 12.7223 20.9249 12.9328 21.0767 13.09L24.655 16.6667H8.33333C8.11232 16.6667 7.90036 16.7545 7.74408 16.9107C7.5878 17.067 7.5 17.279 7.5 17.5Z" fill="#4E4E4E"/>
</svg>
