<svg width="136" height="35" viewBox="0 0 136 35" fill="none" xmlns="http://www.w3.org/2000/svg">
<path d="M50.404 12.7C51.272 12.7 52.0233 12.8447 52.658 13.134C53.302 13.4233 53.7967 13.834 54.142 14.366C54.4873 14.898 54.66 15.528 54.66 16.256C54.66 16.9747 54.4873 17.6047 54.142 18.146C53.7967 18.678 53.302 19.0887 52.658 19.378C52.0233 19.658 51.272 19.798 50.404 19.798H48.43V22.5H46.162V12.7H50.404ZM50.278 17.95C50.9593 17.95 51.4773 17.8053 51.832 17.516C52.1867 17.2173 52.364 16.7973 52.364 16.256C52.364 15.7053 52.1867 15.2853 51.832 14.996C51.4773 14.6973 50.9593 14.548 50.278 14.548H48.43V17.95H50.278ZM70.9818 12.7L67.7758 22.5H65.3398L63.1838 15.864L60.9578 22.5H58.5358L55.3158 12.7H57.6678L59.8798 19.588L62.1898 12.7H64.2898L66.5298 19.644L68.8118 12.7H70.9818ZM78.4479 14.548H75.3119V12.7H83.8519V14.548H80.7159V22.5H78.4479V14.548ZM86.8401 15.962C87.1014 15.598 87.4514 15.3227 87.8901 15.136C88.3381 14.9493 88.8514 14.856 89.4301 14.856V16.872C89.1874 16.8533 89.0241 16.844 88.9401 16.844C88.3148 16.844 87.8248 17.0213 87.4701 17.376C87.1154 17.7213 86.9381 18.244 86.9381 18.944V22.5H84.7541V14.968H86.8401V15.962ZM93.7257 14.856C94.8924 14.856 95.7884 15.136 96.4137 15.696C97.039 16.2467 97.3517 17.082 97.3517 18.202V22.5H95.3077V21.562C94.897 22.262 94.1317 22.612 93.0117 22.612C92.433 22.612 91.929 22.514 91.4997 22.318C91.0797 22.122 90.7577 21.8513 90.5337 21.506C90.3097 21.1607 90.1977 20.7687 90.1977 20.33C90.1977 19.63 90.459 19.0793 90.9817 18.678C91.5137 18.2767 92.3304 18.076 93.4317 18.076H95.1677C95.1677 17.6 95.023 17.236 94.7337 16.984C94.4444 16.7227 94.0104 16.592 93.4317 16.592C93.0304 16.592 92.6337 16.6573 92.2417 16.788C91.859 16.9093 91.5324 17.0773 91.2617 17.292L90.4777 15.766C90.8884 15.4767 91.3784 15.2527 91.9477 15.094C92.5264 14.9353 93.119 14.856 93.7257 14.856ZM93.5577 21.142C93.931 21.142 94.2624 21.058 94.5517 20.89C94.841 20.7127 95.0464 20.456 95.1677 20.12V19.35H93.6697C92.7737 19.35 92.3257 19.644 92.3257 20.232C92.3257 20.512 92.433 20.736 92.6477 20.904C92.8717 21.0627 93.175 21.142 93.5577 21.142ZM103.906 14.856C104.84 14.856 105.591 15.136 106.16 15.696C106.739 16.256 107.028 17.0867 107.028 18.188V22.5H104.844V18.524C104.844 17.9267 104.714 17.4833 104.452 17.194C104.191 16.8953 103.813 16.746 103.318 16.746C102.768 16.746 102.329 16.9187 102.002 17.264C101.676 17.6 101.512 18.104 101.512 18.776V22.5H99.3283V14.968H101.414V15.85C101.704 15.5327 102.063 15.29 102.492 15.122C102.922 14.9447 103.393 14.856 103.906 14.856ZM111.542 22.612C110.917 22.612 110.305 22.5373 109.708 22.388C109.111 22.2293 108.635 22.0333 108.28 21.8L109.008 20.232C109.344 20.4467 109.75 20.624 110.226 20.764C110.702 20.8947 111.169 20.96 111.626 20.96C112.55 20.96 113.012 20.7313 113.012 20.274C113.012 20.0593 112.886 19.9053 112.634 19.812C112.382 19.7187 111.995 19.6393 111.472 19.574C110.856 19.4807 110.347 19.3733 109.946 19.252C109.545 19.1307 109.195 18.916 108.896 18.608C108.607 18.3 108.462 17.8613 108.462 17.292C108.462 16.816 108.597 16.396 108.868 16.032C109.148 15.6587 109.549 15.3693 110.072 15.164C110.604 14.9587 111.229 14.856 111.948 14.856C112.48 14.856 113.007 14.9167 113.53 15.038C114.062 15.15 114.501 15.3087 114.846 15.514L114.118 17.068C113.455 16.6947 112.732 16.508 111.948 16.508C111.481 16.508 111.131 16.5733 110.898 16.704C110.665 16.8347 110.548 17.0027 110.548 17.208C110.548 17.4413 110.674 17.6047 110.926 17.698C111.178 17.7913 111.579 17.88 112.13 17.964C112.746 18.0667 113.25 18.1787 113.642 18.3C114.034 18.412 114.375 18.622 114.664 18.93C114.953 19.238 115.098 19.6673 115.098 20.218C115.098 20.6847 114.958 21.1 114.678 21.464C114.398 21.828 113.987 22.1127 113.446 22.318C112.914 22.514 112.279 22.612 111.542 22.612ZM118.84 15.136H120.772V16.816H118.896V22.5H116.712V16.816H115.55V15.136H116.712V14.8C116.712 13.9413 116.964 13.26 117.468 12.756C117.981 12.252 118.7 12 119.624 12C119.95 12 120.258 12.0373 120.548 12.112C120.846 12.1773 121.094 12.2753 121.29 12.406L120.716 13.988C120.464 13.8107 120.17 13.722 119.834 13.722C119.171 13.722 118.84 14.086 118.84 14.814V15.136ZM129.142 18.762C129.142 18.79 129.128 18.986 129.1 19.35H123.402C123.505 19.8167 123.747 20.1853 124.13 20.456C124.513 20.7267 124.989 20.862 125.558 20.862C125.95 20.862 126.295 20.806 126.594 20.694C126.902 20.5727 127.187 20.386 127.448 20.134L128.61 21.394C127.901 22.206 126.865 22.612 125.502 22.612C124.653 22.612 123.901 22.4487 123.248 22.122C122.595 21.786 122.091 21.324 121.736 20.736C121.381 20.148 121.204 19.4807 121.204 18.734C121.204 17.9967 121.377 17.334 121.722 16.746C122.077 16.1487 122.557 15.6867 123.164 15.36C123.78 15.024 124.466 14.856 125.222 14.856C125.959 14.856 126.627 15.0147 127.224 15.332C127.821 15.6493 128.288 16.1067 128.624 16.704C128.969 17.292 129.142 17.978 129.142 18.762ZM125.236 16.508C124.741 16.508 124.326 16.648 123.99 16.928C123.654 17.208 123.449 17.5907 123.374 18.076H127.084C127.009 17.6 126.804 17.222 126.468 16.942C126.132 16.6527 125.721 16.508 125.236 16.508ZM132.682 15.962C132.943 15.598 133.293 15.3227 133.732 15.136C134.18 14.9493 134.693 14.856 135.272 14.856V16.872C135.029 16.8533 134.866 16.844 134.782 16.844C134.157 16.844 133.667 17.0213 133.312 17.376C132.957 17.7213 132.78 18.244 132.78 18.944V22.5H130.596V14.968H132.682V15.962Z" fill="#4E4E4E"/>
<circle cx="17.5" cy="17.5" r="17.5" fill="#244E76" fill-opacity="0.15"/>
<path d="M7.5 17.5C7.5 17.721 7.5878 17.933 7.74408 18.0892C7.90036 18.2455 8.11232 18.3333 8.33333 18.3333H24.655L21.0783 21.91C20.9265 22.0672 20.8425 22.2777 20.8444 22.4962C20.8463 22.7147 20.934 22.9237 21.0885 23.0782C21.243 23.2327 21.452 23.3203 21.6705 23.3222C21.889 23.3241 22.0995 23.2401 22.2567 23.0883L27.2567 18.0883C27.3338 18.0117 27.395 17.9205 27.4367 17.8201C27.4785 17.7197 27.5 17.6121 27.5 17.5033V17.5C27.5 17.3917 27.4783 17.2833 27.435 17.1817C27.3935 17.0806 27.3323 16.9889 27.255 16.9117L22.255 11.9117C22.0978 11.7599 21.8873 11.6759 21.6688 11.6778C21.4503 11.6797 21.2413 11.7673 21.0868 11.9218C20.9323 12.0763 20.8447 12.2853 20.8428 12.5038C20.8409 12.7223 20.9249 12.9328 21.0767 13.09L24.655 16.6667H8.33333C8.11232 16.6667 7.90036 16.7545 7.74408 16.9107C7.5878 17.067 7.5 17.279 7.5 17.5Z" fill="#4E4E4E"/>
</svg>
