<svg width="573" height="155" viewBox="0 0 573 155" fill="none" xmlns="http://www.w3.org/2000/svg">
<path d="M10.637 15.296V21H6.911V15.25L0.678 4.9H4.634L8.935 12.053L13.236 4.9H16.893L10.637 15.296ZM22.7169 21.184C21.4135 21.184 20.2405 20.9157 19.1979 20.379C18.1705 19.827 17.3655 19.068 16.7829 18.102C16.2002 17.136 15.9089 16.0397 15.9089 14.813C15.9089 13.5863 16.2002 12.49 16.7829 11.524C17.3655 10.558 18.1705 9.80667 19.1979 9.27C20.2405 8.718 21.4135 8.442 22.7169 8.442C24.0202 8.442 25.1855 8.718 26.2129 9.27C27.2402 9.80667 28.0452 10.558 28.6279 11.524C29.2105 12.49 29.5019 13.5863 29.5019 14.813C29.5019 16.0397 29.2105 17.136 28.6279 18.102C28.0452 19.068 27.2402 19.827 26.2129 20.379C25.1855 20.9157 24.0202 21.184 22.7169 21.184ZM22.7169 18.24C23.6369 18.24 24.3882 17.9333 24.9709 17.32C25.5689 16.6913 25.8679 15.8557 25.8679 14.813C25.8679 13.7703 25.5689 12.9423 24.9709 12.329C24.3882 11.7003 23.6369 11.386 22.7169 11.386C21.7969 11.386 21.0379 11.7003 20.4399 12.329C19.8419 12.9423 19.5429 13.7703 19.5429 14.813C19.5429 15.8557 19.8419 16.6913 20.4399 17.32C21.0379 17.9333 21.7969 18.24 22.7169 18.24ZM44.3661 8.626V21H40.9621V19.528C40.4868 20.0647 39.9195 20.4787 39.2601 20.77C38.6008 21.046 37.8878 21.184 37.1211 21.184C35.4958 21.184 34.2078 20.7163 33.2571 19.781C32.3065 18.8457 31.8311 17.458 31.8311 15.618V8.626H35.4191V15.089C35.4191 17.0823 36.2548 18.079 37.9261 18.079C38.7848 18.079 39.4748 17.803 39.9961 17.251C40.5175 16.6837 40.7781 15.848 40.7781 14.744V8.626H44.3661ZM51.1172 10.259C51.5465 9.661 52.1215 9.20867 52.8422 8.902C53.5782 8.59533 54.4215 8.442 55.3722 8.442V11.754C54.9735 11.7233 54.7052 11.708 54.5672 11.708C53.5398 11.708 52.7348 11.9993 52.1522 12.582C51.5695 13.1493 51.2782 14.008 51.2782 15.158V21H47.6902V8.626H51.1172V10.259ZM69.6521 21.276C68.3795 21.276 67.1451 21.1073 65.9491 20.77C64.7685 20.4173 63.8178 19.965 63.0971 19.413L64.3621 16.607C65.0521 17.113 65.8725 17.5193 66.8231 17.826C67.7738 18.1327 68.7245 18.286 69.6751 18.286C70.7331 18.286 71.5151 18.1327 72.0211 17.826C72.5271 17.504 72.7801 17.0823 72.7801 16.561C72.7801 16.1777 72.6268 15.8633 72.3201 15.618C72.0288 15.3573 71.6455 15.1503 71.1701 14.997C70.7101 14.8437 70.0815 14.675 69.2841 14.491C68.0575 14.1997 67.0531 13.9083 66.2711 13.617C65.4891 13.3257 64.8145 12.858 64.2471 12.214C63.6951 11.57 63.4191 10.7113 63.4191 9.638C63.4191 8.70267 63.6721 7.85933 64.1781 7.108C64.6841 6.34133 65.4431 5.73567 66.4551 5.291C67.4825 4.84633 68.7321 4.624 70.2041 4.624C71.2315 4.624 72.2358 4.74667 73.2171 4.992C74.1985 5.23733 75.0571 5.59 75.7931 6.05L74.6431 8.879C73.1558 8.03567 71.6685 7.614 70.1811 7.614C69.1385 7.614 68.3641 7.78267 67.8581 8.12C67.3675 8.45733 67.1221 8.902 67.1221 9.454C67.1221 10.006 67.4058 10.42 67.9731 10.696C68.5558 10.9567 69.4375 11.2173 70.6181 11.478C71.8448 11.7693 72.8491 12.0607 73.6311 12.352C74.4131 12.6433 75.0801 13.1033 75.6321 13.732C76.1995 14.3607 76.4831 15.2117 76.4831 16.285C76.4831 17.205 76.2225 18.0483 75.7011 18.815C75.1951 19.5663 74.4285 20.1643 73.4011 20.609C72.3738 21.0537 71.1241 21.276 69.6521 21.276ZM83.7671 8.442C85.6838 8.442 87.1558 8.902 88.1831 9.822C89.2105 10.7267 89.7241 12.099 89.7241 13.939V21H86.3661V19.459C85.6915 20.609 84.4341 21.184 82.5941 21.184C81.6435 21.184 80.8155 21.023 80.1101 20.701C79.4201 20.379 78.8911 19.9343 78.5231 19.367C78.1551 18.7997 77.9711 18.1557 77.9711 17.435C77.9711 16.285 78.4005 15.3803 79.2591 14.721C80.1331 14.0617 81.4748 13.732 83.2841 13.732H86.1361C86.1361 12.95 85.8985 12.352 85.4231 11.938C84.9478 11.5087 84.2348 11.294 83.2841 11.294C82.6248 11.294 81.9731 11.4013 81.3291 11.616C80.7005 11.8153 80.1638 12.0913 79.7191 12.444L78.4311 9.937C79.1058 9.46167 79.9108 9.09367 80.8461 8.833C81.7968 8.57233 82.7705 8.442 83.7671 8.442ZM83.4911 18.769C84.1045 18.769 84.6488 18.631 85.1241 18.355C85.5995 18.0637 85.9368 17.642 86.1361 17.09V15.825H83.6751C82.2031 15.825 81.4671 16.308 81.4671 17.274C81.4671 17.734 81.6435 18.102 81.9961 18.378C82.3641 18.6387 82.8625 18.769 83.4911 18.769ZM96.9044 8.902H100.078V11.662H96.9964V21H93.4084V11.662H91.4994V8.902H93.4084V8.35C93.4084 6.93933 93.8224 5.82 94.6504 4.992C95.4938 4.164 96.6744 3.75 98.1924 3.75C98.7291 3.75 99.2351 3.81133 99.7104 3.934C100.201 4.04133 100.607 4.20233 100.929 4.417L99.9864 7.016C99.5724 6.72467 99.0894 6.579 98.5374 6.579C97.4488 6.579 96.9044 7.177 96.9044 8.373V8.902ZM113.83 14.859C113.83 14.905 113.807 15.227 113.761 15.825H104.4C104.568 16.5917 104.967 17.1973 105.596 17.642C106.224 18.0867 107.006 18.309 107.942 18.309C108.586 18.309 109.153 18.217 109.644 18.033C110.15 17.8337 110.617 17.527 111.047 17.113L112.956 19.183C111.79 20.517 110.088 21.184 107.85 21.184C106.454 21.184 105.22 20.9157 104.147 20.379C103.073 19.827 102.245 19.068 101.663 18.102C101.08 17.136 100.789 16.0397 100.789 14.813C100.789 13.6017 101.072 12.513 101.64 11.547C102.222 10.5657 103.012 9.80667 104.009 9.27C105.021 8.718 106.148 8.442 107.39 8.442C108.601 8.442 109.697 8.70267 110.679 9.224C111.66 9.74533 112.427 10.4967 112.979 11.478C113.546 12.444 113.83 13.571 113.83 14.859ZM107.413 11.156C106.6 11.156 105.918 11.386 105.366 11.846C104.814 12.306 104.476 12.9347 104.354 13.732H110.449C110.326 12.95 109.989 12.329 109.437 11.869C108.885 11.3937 108.21 11.156 107.413 11.156ZM124.2 20.402C123.847 20.6627 123.41 20.862 122.889 21C122.383 21.1227 121.846 21.184 121.279 21.184C119.807 21.184 118.664 20.8083 117.852 20.057C117.054 19.3057 116.656 18.2017 116.656 16.745V11.662H114.747V8.902H116.656V5.889H120.244V8.902H123.326V11.662H120.244V16.699C120.244 17.2203 120.374 17.6267 120.634 17.918C120.911 18.194 121.294 18.332 121.785 18.332C122.352 18.332 122.835 18.1787 123.234 17.872L124.2 20.402ZM138.271 8.626L132.682 21.759C132.115 23.185 131.409 24.1893 130.566 24.772C129.738 25.3547 128.734 25.646 127.553 25.646C126.909 25.646 126.273 25.5463 125.644 25.347C125.015 25.1477 124.502 24.8717 124.103 24.519L125.414 21.966C125.69 22.2113 126.004 22.403 126.357 22.541C126.725 22.679 127.085 22.748 127.438 22.748C127.929 22.748 128.327 22.6253 128.634 22.38C128.941 22.15 129.217 21.759 129.462 21.207L129.508 21.092L124.149 8.626H127.852L131.325 17.021L134.821 8.626H138.271ZM151.24 8.442C153.156 8.442 154.628 8.902 155.656 9.822C156.683 10.7267 157.197 12.099 157.197 13.939V21H153.839V19.459C153.164 20.609 151.907 21.184 150.067 21.184C149.116 21.184 148.288 21.023 147.583 20.701C146.893 20.379 146.364 19.9343 145.996 19.367C145.628 18.7997 145.444 18.1557 145.444 17.435C145.444 16.285 145.873 15.3803 146.732 14.721C147.606 14.0617 148.947 13.732 150.757 13.732H153.609C153.609 12.95 153.371 12.352 152.896 11.938C152.42 11.5087 151.707 11.294 150.757 11.294C150.097 11.294 149.446 11.4013 148.802 11.616C148.173 11.8153 147.636 12.0913 147.192 12.444L145.904 9.937C146.578 9.46167 147.383 9.09367 148.319 8.833C149.269 8.57233 150.243 8.442 151.24 8.442ZM150.964 18.769C151.577 18.769 152.121 18.631 152.597 18.355C153.072 18.0637 153.409 17.642 153.609 17.09V15.825H151.148C149.676 15.825 148.94 16.308 148.94 17.274C148.94 17.734 149.116 18.102 149.469 18.378C149.837 18.6387 150.335 18.769 150.964 18.769ZM167.965 8.442C169.498 8.442 170.733 8.902 171.668 9.822C172.619 10.742 173.094 12.1067 173.094 13.916V21H169.506V14.468C169.506 13.4867 169.291 12.7583 168.862 12.283C168.433 11.7923 167.812 11.547 166.999 11.547C166.094 11.547 165.374 11.8307 164.837 12.398C164.3 12.95 164.032 13.778 164.032 14.882V21H160.444V8.626H163.871V10.075C164.346 9.55367 164.937 9.155 165.642 8.879C166.347 8.58767 167.122 8.442 167.965 8.442ZM189.085 3.934V21H185.658V19.574C184.769 20.6473 183.481 21.184 181.794 21.184C180.629 21.184 179.571 20.9233 178.62 20.402C177.685 19.8807 176.949 19.137 176.412 18.171C175.876 17.205 175.607 16.0857 175.607 14.813C175.607 13.5403 175.876 12.421 176.412 11.455C176.949 10.489 177.685 9.74533 178.62 9.224C179.571 8.70267 180.629 8.442 181.794 8.442C183.374 8.442 184.608 8.94033 185.497 9.937V3.934H189.085ZM182.415 18.24C183.32 18.24 184.071 17.9333 184.669 17.32C185.267 16.6913 185.566 15.8557 185.566 14.813C185.566 13.7703 185.267 12.9423 184.669 12.329C184.071 11.7003 183.32 11.386 182.415 11.386C181.495 11.386 180.736 11.7003 180.138 12.329C179.54 12.9423 179.241 13.7703 179.241 14.813C179.241 15.8557 179.54 16.6913 180.138 17.32C180.736 17.9333 181.495 18.24 182.415 18.24ZM204.463 21.276C203.19 21.276 201.956 21.1073 200.76 20.77C199.579 20.4173 198.628 19.965 197.908 19.413L199.173 16.607C199.863 17.113 200.683 17.5193 201.634 17.826C202.584 18.1327 203.535 18.286 204.486 18.286C205.544 18.286 206.326 18.1327 206.832 17.826C207.338 17.504 207.591 17.0823 207.591 16.561C207.591 16.1777 207.437 15.8633 207.131 15.618C206.839 15.3573 206.456 15.1503 205.981 14.997C205.521 14.8437 204.892 14.675 204.095 14.491C202.868 14.1997 201.864 13.9083 201.082 13.617C200.3 13.3257 199.625 12.858 199.058 12.214C198.506 11.57 198.23 10.7113 198.23 9.638C198.23 8.70267 198.483 7.85933 198.989 7.108C199.495 6.34133 200.254 5.73567 201.266 5.291C202.293 4.84633 203.543 4.624 205.015 4.624C206.042 4.624 207.046 4.74667 208.028 4.992C209.009 5.23733 209.868 5.59 210.604 6.05L209.454 8.879C207.966 8.03567 206.479 7.614 204.992 7.614C203.949 7.614 203.175 7.78267 202.669 8.12C202.178 8.45733 201.933 8.902 201.933 9.454C201.933 10.006 202.216 10.42 202.784 10.696C203.366 10.9567 204.248 11.2173 205.429 11.478C206.655 11.7693 207.66 12.0607 208.442 12.352C209.224 12.6433 209.891 13.1033 210.443 13.732C211.01 14.3607 211.294 15.2117 211.294 16.285C211.294 17.205 211.033 18.0483 210.512 18.815C210.006 19.5663 209.239 20.1643 208.212 20.609C207.184 21.0537 205.935 21.276 204.463 21.276ZM225.708 14.859C225.708 14.905 225.685 15.227 225.639 15.825H216.278C216.446 16.5917 216.845 17.1973 217.474 17.642C218.102 18.0867 218.884 18.309 219.82 18.309C220.464 18.309 221.031 18.217 221.522 18.033C222.028 17.8337 222.495 17.527 222.925 17.113L224.834 19.183C223.668 20.517 221.966 21.184 219.728 21.184C218.332 21.184 217.098 20.9157 216.025 20.379C214.951 19.827 214.123 19.068 213.541 18.102C212.958 17.136 212.667 16.0397 212.667 14.813C212.667 13.6017 212.95 12.513 213.518 11.547C214.1 10.5657 214.89 9.80667 215.887 9.27C216.899 8.718 218.026 8.442 219.268 8.442C220.479 8.442 221.575 8.70267 222.557 9.224C223.538 9.74533 224.305 10.4967 224.857 11.478C225.424 12.444 225.708 13.571 225.708 14.859ZM219.291 11.156C218.478 11.156 217.796 11.386 217.244 11.846C216.692 12.306 216.354 12.9347 216.232 13.732H222.327C222.204 12.95 221.867 12.329 221.315 11.869C220.763 11.3937 220.088 11.156 219.291 11.156ZM234.076 21.184C232.758 21.184 231.569 20.9157 230.511 20.379C229.469 19.827 228.648 19.068 228.05 18.102C227.468 17.136 227.176 16.0397 227.176 14.813C227.176 13.5863 227.468 12.49 228.05 11.524C228.648 10.558 229.469 9.80667 230.511 9.27C231.569 8.718 232.758 8.442 234.076 8.442C235.38 8.442 236.514 8.718 237.48 9.27C238.462 9.80667 239.175 10.581 239.619 11.593L236.836 13.088C236.192 11.9533 235.265 11.386 234.053 11.386C233.118 11.386 232.344 11.6927 231.73 12.306C231.117 12.9193 230.81 13.755 230.81 14.813C230.81 15.871 231.117 16.7067 231.73 17.32C232.344 17.9333 233.118 18.24 234.053 18.24C235.28 18.24 236.208 17.6727 236.836 16.538L239.619 18.056C239.175 19.0373 238.462 19.804 237.48 20.356C236.514 20.908 235.38 21.184 234.076 21.184ZM254.151 8.626V21H250.747V19.528C250.272 20.0647 249.705 20.4787 249.045 20.77C248.386 21.046 247.673 21.184 246.906 21.184C245.281 21.184 243.993 20.7163 243.042 19.781C242.092 18.8457 241.616 17.458 241.616 15.618V8.626H245.204V15.089C245.204 17.0823 246.04 18.079 247.711 18.079C248.57 18.079 249.26 17.803 249.781 17.251C250.303 16.6837 250.563 15.848 250.563 14.744V8.626H254.151ZM260.902 10.259C261.332 9.661 261.907 9.20867 262.627 8.902C263.363 8.59533 264.207 8.442 265.157 8.442V11.754C264.759 11.7233 264.49 11.708 264.352 11.708C263.325 11.708 262.52 11.9993 261.937 12.582C261.355 13.1493 261.063 14.008 261.063 15.158V21H257.475V8.626H260.902V10.259ZM267.291 8.626H270.879V21H267.291V8.626ZM269.085 6.901C268.425 6.901 267.889 6.70933 267.475 6.326C267.061 5.94267 266.854 5.46733 266.854 4.9C266.854 4.33267 267.061 3.85733 267.475 3.474C267.889 3.09067 268.425 2.899 269.085 2.899C269.744 2.899 270.281 3.083 270.695 3.451C271.109 3.819 271.316 4.279 271.316 4.831C271.316 5.429 271.109 5.92733 270.695 6.326C270.281 6.70933 269.744 6.901 269.085 6.901ZM282.19 20.402C281.837 20.6627 281.4 20.862 280.879 21C280.373 21.1227 279.836 21.184 279.269 21.184C277.797 21.184 276.654 20.8083 275.842 20.057C275.044 19.3057 274.646 18.2017 274.646 16.745V11.662H272.737V8.902H274.646V5.889H278.234V8.902H281.316V11.662H278.234V16.699C278.234 17.2203 278.364 17.6267 278.625 17.918C278.901 18.194 279.284 18.332 279.775 18.332C280.342 18.332 280.825 18.1787 281.224 17.872L282.19 20.402ZM296.261 8.626L290.672 21.759C290.105 23.185 289.4 24.1893 288.556 24.772C287.728 25.3547 286.724 25.646 285.543 25.646C284.899 25.646 284.263 25.5463 283.634 25.347C283.006 25.1477 282.492 24.8717 282.093 24.519L283.404 21.966C283.68 22.2113 283.995 22.403 284.347 22.541C284.715 22.679 285.076 22.748 285.428 22.748C285.919 22.748 286.318 22.6253 286.624 22.38C286.931 22.15 287.207 21.759 287.452 21.207L287.498 21.092L282.139 8.626H285.842L289.315 17.021L292.811 8.626H296.261ZM304.239 8.626H307.827V21H304.239V8.626ZM306.033 6.901C305.374 6.901 304.837 6.70933 304.423 6.326C304.009 5.94267 303.802 5.46733 303.802 4.9C303.802 4.33267 304.009 3.85733 304.423 3.474C304.837 3.09067 305.374 2.899 306.033 2.899C306.692 2.899 307.229 3.083 307.643 3.451C308.057 3.819 308.264 4.279 308.264 4.831C308.264 5.429 308.057 5.92733 307.643 6.326C307.229 6.70933 306.692 6.901 306.033 6.901ZM315.32 21.184C314.293 21.184 313.288 21.0613 312.307 20.816C311.326 20.5553 310.544 20.2333 309.961 19.85L311.157 17.274C311.709 17.6267 312.376 17.918 313.158 18.148C313.94 18.3627 314.707 18.47 315.458 18.47C316.976 18.47 317.735 18.0943 317.735 17.343C317.735 16.9903 317.528 16.7373 317.114 16.584C316.7 16.4307 316.064 16.3003 315.205 16.193C314.193 16.0397 313.357 15.8633 312.698 15.664C312.039 15.4647 311.464 15.112 310.973 14.606C310.498 14.1 310.26 13.3793 310.26 12.444C310.26 11.662 310.482 10.972 310.927 10.374C311.387 9.76067 312.046 9.28533 312.905 8.948C313.779 8.61067 314.806 8.442 315.987 8.442C316.861 8.442 317.727 8.54167 318.586 8.741C319.46 8.925 320.181 9.18567 320.748 9.523L319.552 12.076C318.463 11.4627 317.275 11.156 315.987 11.156C315.22 11.156 314.645 11.2633 314.262 11.478C313.879 11.6927 313.687 11.9687 313.687 12.306C313.687 12.6893 313.894 12.9577 314.308 13.111C314.722 13.2643 315.381 13.41 316.286 13.548C317.298 13.7167 318.126 13.9007 318.77 14.1C319.414 14.284 319.974 14.629 320.449 15.135C320.924 15.641 321.162 16.3463 321.162 17.251C321.162 18.0177 320.932 18.7 320.472 19.298C320.012 19.896 319.337 20.3637 318.448 20.701C317.574 21.023 316.531 21.184 315.32 21.184ZM335.777 21.184C334.474 21.184 333.301 20.9157 332.258 20.379C331.231 19.827 330.426 19.068 329.843 18.102C329.261 17.136 328.969 16.0397 328.969 14.813C328.969 13.5863 329.261 12.49 329.843 11.524C330.426 10.558 331.231 9.80667 332.258 9.27C333.301 8.718 334.474 8.442 335.777 8.442C337.081 8.442 338.246 8.718 339.273 9.27C340.301 9.80667 341.106 10.558 341.688 11.524C342.271 12.49 342.562 13.5863 342.562 14.813C342.562 16.0397 342.271 17.136 341.688 18.102C341.106 19.068 340.301 19.827 339.273 20.379C338.246 20.9157 337.081 21.184 335.777 21.184ZM335.777 18.24C336.697 18.24 337.449 17.9333 338.031 17.32C338.629 16.6913 338.928 15.8557 338.928 14.813C338.928 13.7703 338.629 12.9423 338.031 12.329C337.449 11.7003 336.697 11.386 335.777 11.386C334.857 11.386 334.098 11.7003 333.5 12.329C332.902 12.9423 332.603 13.7703 332.603 14.813C332.603 15.8557 332.902 16.6913 333.5 17.32C334.098 17.9333 334.857 18.24 335.777 18.24ZM357.427 8.626V21H354.023V19.528C353.547 20.0647 352.98 20.4787 352.321 20.77C351.661 21.046 350.948 21.184 350.182 21.184C348.556 21.184 347.268 20.7163 346.318 19.781C345.367 18.8457 344.892 17.458 344.892 15.618V8.626H348.48V15.089C348.48 17.0823 349.315 18.079 350.987 18.079C351.845 18.079 352.535 17.803 353.057 17.251C353.578 16.6837 353.839 15.848 353.839 14.744V8.626H357.427ZM364.178 10.259C364.607 9.661 365.182 9.20867 365.903 8.902C366.639 8.59533 367.482 8.442 368.433 8.442V11.754C368.034 11.7233 367.766 11.708 367.628 11.708C366.6 11.708 365.795 11.9993 365.213 12.582C364.63 13.1493 364.339 14.008 364.339 15.158V21H360.751V8.626H364.178V10.259ZM384.392 4.9C385.818 4.9 387.052 5.13767 388.095 5.613C389.153 6.08833 389.965 6.763 390.533 7.637C391.1 8.511 391.384 9.546 391.384 10.742C391.384 11.9227 391.1 12.9577 390.533 13.847C389.965 14.721 389.153 15.3957 388.095 15.871C387.052 16.331 385.818 16.561 384.392 16.561H381.149V21H377.423V4.9H384.392ZM384.185 13.525C385.304 13.525 386.155 13.2873 386.738 12.812C387.32 12.3213 387.612 11.6313 387.612 10.742C387.612 9.83733 387.32 9.14733 386.738 8.672C386.155 8.18133 385.304 7.936 384.185 7.936H381.149V13.525H384.185ZM397.218 10.259C397.647 9.661 398.222 9.20867 398.943 8.902C399.679 8.59533 400.522 8.442 401.473 8.442V11.754C401.074 11.7233 400.806 11.708 400.668 11.708C399.64 11.708 398.835 11.9993 398.253 12.582C397.67 13.1493 397.379 14.008 397.379 15.158V21H393.791V8.626H397.218V10.259ZM403.606 8.626H407.194V21H403.606V8.626ZM405.4 6.901C404.741 6.901 404.204 6.70933 403.79 6.326C403.376 5.94267 403.169 5.46733 403.169 4.9C403.169 4.33267 403.376 3.85733 403.79 3.474C404.204 3.09067 404.741 2.899 405.4 2.899C406.06 2.899 406.596 3.083 407.01 3.451C407.424 3.819 407.631 4.279 407.631 4.831C407.631 5.429 407.424 5.92733 407.01 6.326C406.596 6.70933 406.06 6.901 405.4 6.901ZM416.412 21.184C415.109 21.184 413.936 20.9157 412.893 20.379C411.866 19.827 411.061 19.068 410.478 18.102C409.895 17.136 409.604 16.0397 409.604 14.813C409.604 13.5863 409.895 12.49 410.478 11.524C411.061 10.558 411.866 9.80667 412.893 9.27C413.936 8.718 415.109 8.442 416.412 8.442C417.715 8.442 418.881 8.718 419.908 9.27C420.935 9.80667 421.74 10.558 422.323 11.524C422.906 12.49 423.197 13.5863 423.197 14.813C423.197 16.0397 422.906 17.136 422.323 18.102C421.74 19.068 420.935 19.827 419.908 20.379C418.881 20.9157 417.715 21.184 416.412 21.184ZM416.412 18.24C417.332 18.24 418.083 17.9333 418.666 17.32C419.264 16.6913 419.563 15.8557 419.563 14.813C419.563 13.7703 419.264 12.9423 418.666 12.329C418.083 11.7003 417.332 11.386 416.412 11.386C415.492 11.386 414.733 11.7003 414.135 12.329C413.537 12.9423 413.238 13.7703 413.238 14.813C413.238 15.8557 413.537 16.6913 414.135 17.32C414.733 17.9333 415.492 18.24 416.412 18.24ZM429.022 10.259C429.452 9.661 430.027 9.20867 430.747 8.902C431.483 8.59533 432.327 8.442 433.277 8.442V11.754C432.879 11.7233 432.61 11.708 432.472 11.708C431.445 11.708 430.64 11.9993 430.057 12.582C429.475 13.1493 429.183 14.008 429.183 15.158V21H425.595V8.626H429.022V10.259ZM435.411 8.626H438.999V21H435.411V8.626ZM437.205 6.901C436.546 6.901 436.009 6.70933 435.595 6.326C435.181 5.94267 434.974 5.46733 434.974 4.9C434.974 4.33267 435.181 3.85733 435.595 3.474C436.009 3.09067 436.546 2.899 437.205 2.899C437.864 2.899 438.401 3.083 438.815 3.451C439.229 3.819 439.436 4.279 439.436 4.831C439.436 5.429 439.229 5.92733 438.815 6.326C438.401 6.70933 437.864 6.901 437.205 6.901ZM450.31 20.402C449.957 20.6627 449.52 20.862 448.999 21C448.493 21.1227 447.956 21.184 447.389 21.184C445.917 21.184 444.775 20.8083 443.962 20.057C443.165 19.3057 442.766 18.2017 442.766 16.745V11.662H440.857V8.902H442.766V5.889H446.354V8.902H449.436V11.662H446.354V16.699C446.354 17.2203 446.484 17.6267 446.745 17.918C447.021 18.194 447.404 18.332 447.895 18.332C448.462 18.332 448.945 18.1787 449.344 17.872L450.31 20.402ZM464.381 8.626L458.792 21.759C458.225 23.185 457.52 24.1893 456.676 24.772C455.848 25.3547 454.844 25.646 453.663 25.646C453.019 25.646 452.383 25.5463 451.754 25.347C451.126 25.1477 450.612 24.8717 450.213 24.519L451.524 21.966C451.8 22.2113 452.115 22.403 452.467 22.541C452.835 22.679 453.196 22.748 453.548 22.748C454.039 22.748 454.438 22.6253 454.744 22.38C455.051 22.15 455.327 21.759 455.572 21.207L455.618 21.092L450.259 8.626H453.962L457.435 17.021L460.931 8.626H464.381Z" fill="#171717" fill-opacity="0.72"/>
<path d="M51.66 68H54.9V82H51.66V68ZM62.8225 82.24C61.7158 82.24 60.6425 82.0933 59.6025 81.8C58.5758 81.4933 57.7492 81.1 57.1225 80.62L58.2225 78.18C58.8225 78.62 59.5358 78.9733 60.3625 79.24C61.1892 79.5067 62.0158 79.64 62.8425 79.64C63.7625 79.64 64.4425 79.5067 64.8825 79.24C65.3225 78.96 65.5425 78.5933 65.5425 78.14C65.5425 77.8067 65.4092 77.5333 65.1425 77.32C64.8892 77.0933 64.5558 76.9133 64.1425 76.78C63.7425 76.6467 63.1958 76.5 62.5025 76.34C61.4358 76.0867 60.5625 75.8333 59.8825 75.58C59.2025 75.3267 58.6158 74.92 58.1225 74.36C57.6425 73.8 57.4025 73.0533 57.4025 72.12C57.4025 71.3067 57.6225 70.5733 58.0625 69.92C58.5025 69.2533 59.1625 68.7267 60.0425 68.34C60.9358 67.9533 62.0225 67.76 63.3025 67.76C64.1958 67.76 65.0692 67.8667 65.9225 68.08C66.7758 68.2933 67.5225 68.6 68.1625 69L67.1625 71.46C65.8692 70.7267 64.5758 70.36 63.2825 70.36C62.3758 70.36 61.7025 70.5067 61.2625 70.8C60.8358 71.0933 60.6225 71.48 60.6225 71.96C60.6225 72.44 60.8692 72.8 61.3625 73.04C61.8692 73.2667 62.6358 73.4933 63.6625 73.72C64.7292 73.9733 65.6025 74.2267 66.2825 74.48C66.9625 74.7333 67.5425 75.1333 68.0225 75.68C68.5158 76.2267 68.7625 76.9667 68.7625 77.9C68.7625 78.7 68.5358 79.4333 68.0825 80.1C67.6425 80.7533 66.9758 81.2733 66.0825 81.66C65.1892 82.0467 64.1025 82.24 62.8225 82.24ZM77.7564 82.24C76.3031 82.24 74.9897 81.9267 73.8164 81.3C72.6564 80.6733 71.7431 79.8133 71.0764 78.72C70.4231 77.6133 70.0964 76.3733 70.0964 75C70.0964 73.6267 70.4231 72.3933 71.0764 71.3C71.7431 70.1933 72.6564 69.3267 73.8164 68.7C74.9897 68.0733 76.3031 67.76 77.7564 67.76C79.2097 67.76 80.5164 68.0733 81.6764 68.7C82.8364 69.3267 83.7497 70.1933 84.4164 71.3C85.0831 72.3933 85.4164 73.6267 85.4164 75C85.4164 76.3733 85.0831 77.6133 84.4164 78.72C83.7497 79.8133 82.8364 80.6733 81.6764 81.3C80.5164 81.9267 79.2097 82.24 77.7564 82.24ZM77.7564 79.48C78.5831 79.48 79.3297 79.2933 79.9964 78.92C80.6631 78.5333 81.1831 78 81.5564 77.32C81.9431 76.64 82.1364 75.8667 82.1364 75C82.1364 74.1333 81.9431 73.36 81.5564 72.68C81.1831 72 80.6631 71.4733 79.9964 71.1C79.3297 70.7133 78.5831 70.52 77.7564 70.52C76.9297 70.52 76.1831 70.7133 75.5164 71.1C74.8497 71.4733 74.3231 72 73.9364 72.68C73.5631 73.36 73.3764 74.1333 73.3764 75C73.3764 75.8667 73.5631 76.64 73.9364 77.32C74.3231 78 74.8497 78.5333 75.5164 78.92C76.1831 79.2933 76.9297 79.48 77.7564 79.48ZM103.095 79.36V82H92.5155V79.9L97.9155 74.8C98.4888 74.2533 98.8755 73.7867 99.0755 73.4C99.2755 73 99.3755 72.6067 99.3755 72.22C99.3755 71.66 99.1821 71.2333 98.7955 70.94C98.4221 70.6333 97.8688 70.48 97.1355 70.48C96.5221 70.48 95.9688 70.6 95.4755 70.84C94.9821 71.0667 94.5688 71.4133 94.2355 71.88L91.8755 70.36C92.4221 69.5467 93.1755 68.9133 94.1355 68.46C95.0955 67.9933 96.1955 67.76 97.4355 67.76C98.4755 67.76 99.3821 67.9333 100.155 68.28C100.942 68.6133 101.549 69.0933 101.975 69.72C102.415 70.3333 102.635 71.06 102.635 71.9C102.635 72.66 102.475 73.3733 102.155 74.04C101.835 74.7067 101.215 75.4667 100.295 76.32L97.0755 79.36H103.095ZM115.353 68V70.1L110.153 82H106.633L111.653 70.64H107.013V72.92H104.133V68H115.353ZM122.405 82.24C121.245 82.24 120.212 81.9533 119.305 81.38C118.398 80.8067 117.685 79.98 117.165 78.9C116.658 77.8067 116.405 76.5067 116.405 75C116.405 73.4933 116.658 72.2 117.165 71.12C117.685 70.0267 118.398 69.1933 119.305 68.62C120.212 68.0467 121.245 67.76 122.405 67.76C123.565 67.76 124.598 68.0467 125.505 68.62C126.412 69.1933 127.118 70.0267 127.625 71.12C128.145 72.2 128.405 73.4933 128.405 75C128.405 76.5067 128.145 77.8067 127.625 78.9C127.118 79.98 126.412 80.8067 125.505 81.38C124.598 81.9533 123.565 82.24 122.405 82.24ZM122.405 79.5C123.258 79.5 123.925 79.1333 124.405 78.4C124.898 77.6667 125.145 76.5333 125.145 75C125.145 73.4667 124.898 72.3333 124.405 71.6C123.925 70.8667 123.258 70.5 122.405 70.5C121.565 70.5 120.898 70.8667 120.405 71.6C119.925 72.3333 119.685 73.4667 119.685 75C119.685 76.5333 119.925 77.6667 120.405 78.4C120.898 79.1333 121.565 79.5 122.405 79.5ZM135.979 82.24C134.819 82.24 133.786 81.9533 132.879 81.38C131.973 80.8067 131.259 79.98 130.739 78.9C130.233 77.8067 129.979 76.5067 129.979 75C129.979 73.4933 130.233 72.2 130.739 71.12C131.259 70.0267 131.973 69.1933 132.879 68.62C133.786 68.0467 134.819 67.76 135.979 67.76C137.139 67.76 138.173 68.0467 139.079 68.62C139.986 69.1933 140.693 70.0267 141.199 71.12C141.719 72.2 141.979 73.4933 141.979 75C141.979 76.5067 141.719 77.8067 141.199 78.9C140.693 79.98 139.986 80.8067 139.079 81.38C138.173 81.9533 137.139 82.24 135.979 82.24ZM135.979 79.5C136.833 79.5 137.499 79.1333 137.979 78.4C138.473 77.6667 138.719 76.5333 138.719 75C138.719 73.4667 138.473 72.3333 137.979 71.6C137.499 70.8667 136.833 70.5 135.979 70.5C135.139 70.5 134.473 70.8667 133.979 71.6C133.499 72.3333 133.259 73.4667 133.259 75C133.259 76.5333 133.499 77.6667 133.979 78.4C134.473 79.1333 135.139 79.5 135.979 79.5ZM148.836 68V82H145.596V70.6H142.796V68H148.836ZM157.812 68H161.052V82H157.812V68ZM170.695 71.08C172.028 71.08 173.102 71.48 173.915 72.28C174.742 73.08 175.155 74.2667 175.155 75.84V82H172.035V76.32C172.035 75.4667 171.848 74.8333 171.475 74.42C171.102 73.9933 170.562 73.78 169.855 73.78C169.068 73.78 168.442 74.0267 167.975 74.52C167.508 75 167.275 75.72 167.275 76.68V82H164.155V71.24H167.135V72.5C167.548 72.0467 168.062 71.7 168.675 71.46C169.288 71.2067 169.962 71.08 170.695 71.08ZM181.403 71.48H184.163V73.88H181.483V82H178.363V73.88H176.703V71.48H178.363V71C178.363 69.7733 178.723 68.8 179.443 68.08C180.176 67.36 181.203 67 182.523 67C182.99 67 183.43 67.0533 183.843 67.16C184.27 67.2533 184.623 67.3933 184.903 67.58L184.083 69.84C183.723 69.5867 183.303 69.46 182.823 69.46C181.876 69.46 181.403 69.98 181.403 71.02V71.48ZM190.701 82.16C189.567 82.16 188.547 81.9267 187.641 81.46C186.747 80.98 186.047 80.32 185.541 79.48C185.034 78.64 184.781 77.6867 184.781 76.62C184.781 75.5533 185.034 74.6 185.541 73.76C186.047 72.92 186.747 72.2667 187.641 71.8C188.547 71.32 189.567 71.08 190.701 71.08C191.834 71.08 192.847 71.32 193.741 71.8C194.634 72.2667 195.334 72.92 195.841 73.76C196.347 74.6 196.601 75.5533 196.601 76.62C196.601 77.6867 196.347 78.64 195.841 79.48C195.334 80.32 194.634 80.98 193.741 81.46C192.847 81.9267 191.834 82.16 190.701 82.16ZM190.701 79.6C191.501 79.6 192.154 79.3333 192.661 78.8C193.181 78.2533 193.441 77.5267 193.441 76.62C193.441 75.7133 193.181 74.9933 192.661 74.46C192.154 73.9133 191.501 73.64 190.701 73.64C189.901 73.64 189.241 73.9133 188.721 74.46C188.201 74.9933 187.941 75.7133 187.941 76.62C187.941 77.5267 188.201 78.2533 188.721 78.8C189.241 79.3333 189.901 79.6 190.701 79.6ZM201.666 72.66C202.039 72.14 202.539 71.7467 203.166 71.48C203.806 71.2133 204.539 71.08 205.366 71.08V73.96C205.019 73.9333 204.786 73.92 204.666 73.92C203.773 73.92 203.073 74.1733 202.566 74.68C202.059 75.1733 201.806 75.92 201.806 76.92V82H198.686V71.24H201.666V72.66ZM221.001 71.08C222.348 71.08 223.415 71.48 224.201 72.28C225.001 73.0667 225.401 74.2533 225.401 75.84V82H222.281V76.32C222.281 75.4667 222.101 74.8333 221.741 74.42C221.395 73.9933 220.895 73.78 220.241 73.78C219.508 73.78 218.928 74.02 218.501 74.5C218.075 74.9667 217.861 75.6667 217.861 76.6V82H214.741V76.32C214.741 74.6267 214.061 73.78 212.701 73.78C211.981 73.78 211.408 74.02 210.981 74.5C210.555 74.9667 210.341 75.6667 210.341 76.6V82H207.221V71.24H210.201V72.48C210.601 72.0267 211.088 71.68 211.661 71.44C212.248 71.2 212.888 71.08 213.581 71.08C214.341 71.08 215.028 71.2333 215.641 71.54C216.255 71.8333 216.748 72.2667 217.121 72.84C217.561 72.28 218.115 71.8467 218.781 71.54C219.461 71.2333 220.201 71.08 221.001 71.08ZM232.538 71.08C234.204 71.08 235.484 71.48 236.378 72.28C237.271 73.0667 237.718 74.26 237.718 75.86V82H234.798V80.66C234.211 81.66 233.118 82.16 231.518 82.16C230.691 82.16 229.971 82.02 229.358 81.74C228.758 81.46 228.298 81.0733 227.978 80.58C227.658 80.0867 227.498 79.5267 227.498 78.9C227.498 77.9 227.871 77.1133 228.618 76.54C229.378 75.9667 230.544 75.68 232.118 75.68H234.598C234.598 75 234.391 74.48 233.978 74.12C233.564 73.7467 232.944 73.56 232.118 73.56C231.544 73.56 230.978 73.6533 230.418 73.84C229.871 74.0133 229.404 74.2533 229.018 74.56L227.898 72.38C228.484 71.9667 229.184 71.6467 229.998 71.42C230.824 71.1933 231.671 71.08 232.538 71.08ZM232.298 80.06C232.831 80.06 233.304 79.94 233.718 79.7C234.131 79.4467 234.424 79.08 234.598 78.6V77.5H232.458C231.178 77.5 230.538 77.92 230.538 78.76C230.538 79.16 230.691 79.48 230.998 79.72C231.318 79.9467 231.751 80.06 232.298 80.06ZM247.482 81.48C247.175 81.7067 246.795 81.88 246.342 82C245.902 82.1067 245.435 82.16 244.942 82.16C243.662 82.16 242.668 81.8333 241.962 81.18C241.268 80.5267 240.922 79.5667 240.922 78.3V73.88H239.262V71.48H240.922V68.86H244.042V71.48H246.722V73.88H244.042V78.26C244.042 78.7133 244.155 79.0667 244.382 79.32C244.622 79.56 244.955 79.68 245.382 79.68C245.875 79.68 246.295 79.5467 246.642 79.28L247.482 81.48ZM249.233 71.24H252.353V82H249.233V71.24ZM250.793 69.74C250.22 69.74 249.753 69.5733 249.393 69.24C249.033 68.9067 248.853 68.4933 248.853 68C248.853 67.5067 249.033 67.0933 249.393 66.76C249.753 66.4267 250.22 66.26 250.793 66.26C251.366 66.26 251.833 66.42 252.193 66.74C252.553 67.06 252.733 67.46 252.733 67.94C252.733 68.46 252.553 68.8933 252.193 69.24C251.833 69.5733 251.366 69.74 250.793 69.74ZM260.369 82.16C259.235 82.16 258.215 81.9267 257.309 81.46C256.415 80.98 255.715 80.32 255.209 79.48C254.702 78.64 254.449 77.6867 254.449 76.62C254.449 75.5533 254.702 74.6 255.209 73.76C255.715 72.92 256.415 72.2667 257.309 71.8C258.215 71.32 259.235 71.08 260.369 71.08C261.502 71.08 262.515 71.32 263.409 71.8C264.302 72.2667 265.002 72.92 265.509 73.76C266.015 74.6 266.269 75.5533 266.269 76.62C266.269 77.6867 266.015 78.64 265.509 79.48C265.002 80.32 264.302 80.98 263.409 81.46C262.515 81.9267 261.502 82.16 260.369 82.16ZM260.369 79.6C261.169 79.6 261.822 79.3333 262.329 78.8C262.849 78.2533 263.109 77.5267 263.109 76.62C263.109 75.7133 262.849 74.9933 262.329 74.46C261.822 73.9133 261.169 73.64 260.369 73.64C259.569 73.64 258.909 73.9133 258.389 74.46C257.869 74.9933 257.609 75.7133 257.609 76.62C257.609 77.5267 257.869 78.2533 258.389 78.8C258.909 79.3333 259.569 79.6 260.369 79.6ZM274.894 71.08C276.227 71.08 277.301 71.48 278.114 72.28C278.941 73.08 279.354 74.2667 279.354 75.84V82H276.234V76.32C276.234 75.4667 276.047 74.8333 275.674 74.42C275.301 73.9933 274.761 73.78 274.054 73.78C273.267 73.78 272.641 74.0267 272.174 74.52C271.707 75 271.474 75.72 271.474 76.68V82H268.354V71.24H271.334V72.5C271.747 72.0467 272.261 71.7 272.874 71.46C273.487 71.2067 274.161 71.08 274.894 71.08ZM292.666 82.24C291.56 82.24 290.486 82.0933 289.446 81.8C288.42 81.4933 287.593 81.1 286.966 80.62L288.066 78.18C288.666 78.62 289.38 78.9733 290.206 79.24C291.033 79.5067 291.86 79.64 292.686 79.64C293.606 79.64 294.286 79.5067 294.726 79.24C295.166 78.96 295.386 78.5933 295.386 78.14C295.386 77.8067 295.253 77.5333 294.986 77.32C294.733 77.0933 294.4 76.9133 293.986 76.78C293.586 76.6467 293.04 76.5 292.346 76.34C291.28 76.0867 290.406 75.8333 289.726 75.58C289.046 75.3267 288.46 74.92 287.966 74.36C287.486 73.8 287.246 73.0533 287.246 72.12C287.246 71.3067 287.466 70.5733 287.906 69.92C288.346 69.2533 289.006 68.7267 289.886 68.34C290.78 67.9533 291.866 67.76 293.146 67.76C294.04 67.76 294.913 67.8667 295.766 68.08C296.62 68.2933 297.366 68.6 298.006 69L297.006 71.46C295.713 70.7267 294.42 70.36 293.126 70.36C292.22 70.36 291.546 70.5067 291.106 70.8C290.68 71.0933 290.466 71.48 290.466 71.96C290.466 72.44 290.713 72.8 291.206 73.04C291.713 73.2667 292.48 73.4933 293.506 73.72C294.573 73.9733 295.446 74.2267 296.126 74.48C296.806 74.7333 297.386 75.1333 297.866 75.68C298.36 76.2267 298.606 76.9667 298.606 77.9C298.606 78.7 298.38 79.4333 297.926 80.1C297.486 80.7533 296.82 81.2733 295.926 81.66C295.033 82.0467 293.946 82.24 292.666 82.24ZM311.14 76.66C311.14 76.7 311.12 76.98 311.08 77.5H302.94C303.087 78.1667 303.433 78.6933 303.98 79.08C304.527 79.4667 305.207 79.66 306.02 79.66C306.58 79.66 307.073 79.58 307.5 79.42C307.94 79.2467 308.347 78.98 308.72 78.62L310.38 80.42C309.367 81.58 307.887 82.16 305.94 82.16C304.727 82.16 303.653 81.9267 302.72 81.46C301.787 80.98 301.067 80.32 300.56 79.48C300.053 78.64 299.8 77.6867 299.8 76.62C299.8 75.5667 300.047 74.62 300.54 73.78C301.047 72.9267 301.733 72.2667 302.6 71.8C303.48 71.32 304.46 71.08 305.54 71.08C306.593 71.08 307.547 71.3067 308.4 71.76C309.253 72.2133 309.92 72.8667 310.4 73.72C310.893 74.56 311.14 75.54 311.14 76.66ZM305.56 73.44C304.853 73.44 304.26 73.64 303.78 74.04C303.3 74.44 303.007 74.9867 302.9 75.68H308.2C308.093 75 307.8 74.46 307.32 74.06C306.84 73.6467 306.253 73.44 305.56 73.44ZM318.417 82.16C317.271 82.16 316.237 81.9267 315.317 81.46C314.411 80.98 313.697 80.32 313.177 79.48C312.671 78.64 312.417 77.6867 312.417 76.62C312.417 75.5533 312.671 74.6 313.177 73.76C313.697 72.92 314.411 72.2667 315.317 71.8C316.237 71.32 317.271 71.08 318.417 71.08C319.551 71.08 320.537 71.32 321.377 71.8C322.231 72.2667 322.851 72.94 323.237 73.82L320.817 75.12C320.257 74.1333 319.451 73.64 318.397 73.64C317.584 73.64 316.911 73.9067 316.377 74.44C315.844 74.9733 315.577 75.7 315.577 76.62C315.577 77.54 315.844 78.2667 316.377 78.8C316.911 79.3333 317.584 79.6 318.397 79.6C319.464 79.6 320.271 79.1067 320.817 78.12L323.237 79.44C322.851 80.2933 322.231 80.96 321.377 81.44C320.537 81.92 319.551 82.16 318.417 82.16ZM335.874 71.24V82H332.914V80.72C332.5 81.1867 332.007 81.5467 331.434 81.8C330.86 82.04 330.24 82.16 329.574 82.16C328.16 82.16 327.04 81.7533 326.214 80.94C325.387 80.1267 324.974 78.92 324.974 77.32V71.24H328.094V76.86C328.094 78.5933 328.82 79.46 330.274 79.46C331.02 79.46 331.62 79.22 332.074 78.74C332.527 78.2467 332.754 77.52 332.754 76.56V71.24H335.874ZM341.744 72.66C342.118 72.14 342.618 71.7467 343.244 71.48C343.884 71.2133 344.618 71.08 345.444 71.08V73.96C345.098 73.9333 344.864 73.92 344.744 73.92C343.851 73.92 343.151 74.1733 342.644 74.68C342.138 75.1733 341.884 75.92 341.884 76.92V82H338.764V71.24H341.744V72.66ZM347.299 71.24H350.419V82H347.299V71.24ZM348.859 69.74C348.286 69.74 347.819 69.5733 347.459 69.24C347.099 68.9067 346.919 68.4933 346.919 68C346.919 67.5067 347.099 67.0933 347.459 66.76C347.819 66.4267 348.286 66.26 348.859 66.26C349.433 66.26 349.899 66.42 350.259 66.74C350.619 67.06 350.799 67.46 350.799 67.94C350.799 68.46 350.619 68.8933 350.259 69.24C349.899 69.5733 349.433 69.74 348.859 69.74ZM360.255 81.48C359.948 81.7067 359.568 81.88 359.115 82C358.675 82.1067 358.208 82.16 357.715 82.16C356.435 82.16 355.442 81.8333 354.735 81.18C354.042 80.5267 353.695 79.5667 353.695 78.3V73.88H352.035V71.48H353.695V68.86H356.815V71.48H359.495V73.88H356.815V78.26C356.815 78.7133 356.928 79.0667 357.155 79.32C357.395 79.56 357.728 79.68 358.155 79.68C358.648 79.68 359.068 79.5467 359.415 79.28L360.255 81.48ZM372.491 71.24L367.631 82.66C367.138 83.9 366.524 84.7733 365.791 85.28C365.071 85.7867 364.198 86.04 363.171 86.04C362.611 86.04 362.058 85.9533 361.511 85.78C360.964 85.6067 360.518 85.3667 360.171 85.06L361.311 82.84C361.551 83.0533 361.824 83.22 362.131 83.34C362.451 83.46 362.764 83.52 363.071 83.52C363.498 83.52 363.844 83.4133 364.111 83.2C364.378 83 364.618 82.66 364.831 82.18L364.871 82.08L360.211 71.24H363.431L366.451 78.54L369.491 71.24H372.491ZM386.348 82.24C384.922 82.24 383.628 81.9333 382.468 81.32C381.322 80.6933 380.415 79.8333 379.748 78.74C379.095 77.6333 378.768 76.3867 378.768 75C378.768 73.6133 379.095 72.3733 379.748 71.28C380.415 70.1733 381.322 69.3133 382.468 68.7C383.628 68.0733 384.928 67.76 386.368 67.76C387.582 67.76 388.675 67.9733 389.648 68.4C390.635 68.8267 391.462 69.44 392.128 70.24L390.048 72.16C389.102 71.0667 387.928 70.52 386.528 70.52C385.662 70.52 384.888 70.7133 384.208 71.1C383.528 71.4733 382.995 72 382.608 72.68C382.235 73.36 382.048 74.1333 382.048 75C382.048 75.8667 382.235 76.64 382.608 77.32C382.995 78 383.528 78.5333 384.208 78.92C384.888 79.2933 385.662 79.48 386.528 79.48C387.928 79.48 389.102 78.9267 390.048 77.82L392.128 79.74C391.462 80.5533 390.635 81.1733 389.648 81.6C388.662 82.0267 387.562 82.24 386.348 82.24ZM404.265 76.66C404.265 76.7 404.245 76.98 404.205 77.5H396.065C396.212 78.1667 396.558 78.6933 397.105 79.08C397.652 79.4667 398.332 79.66 399.145 79.66C399.705 79.66 400.198 79.58 400.625 79.42C401.065 79.2467 401.472 78.98 401.845 78.62L403.505 80.42C402.492 81.58 401.012 82.16 399.065 82.16C397.852 82.16 396.778 81.9267 395.845 81.46C394.912 80.98 394.192 80.32 393.685 79.48C393.178 78.64 392.925 77.6867 392.925 76.62C392.925 75.5667 393.172 74.62 393.665 73.78C394.172 72.9267 394.858 72.2667 395.725 71.8C396.605 71.32 397.585 71.08 398.665 71.08C399.718 71.08 400.672 71.3067 401.525 71.76C402.378 72.2133 403.045 72.8667 403.525 73.72C404.018 74.56 404.265 75.54 404.265 76.66ZM398.685 73.44C397.978 73.44 397.385 73.64 396.905 74.04C396.425 74.44 396.132 74.9867 396.025 75.68H401.325C401.218 75 400.925 74.46 400.445 74.06C399.965 73.6467 399.378 73.44 398.685 73.44ZM409.322 72.66C409.696 72.14 410.196 71.7467 410.822 71.48C411.462 71.2133 412.196 71.08 413.022 71.08V73.96C412.676 73.9333 412.442 73.92 412.322 73.92C411.429 73.92 410.729 74.1733 410.222 74.68C409.716 75.1733 409.462 75.92 409.462 76.92V82H406.342V71.24H409.322V72.66ZM422.189 81.48C421.882 81.7067 421.502 81.88 421.049 82C420.609 82.1067 420.142 82.16 419.649 82.16C418.369 82.16 417.375 81.8333 416.669 81.18C415.975 80.5267 415.629 79.5667 415.629 78.3V73.88H413.969V71.48H415.629V68.86H418.749V71.48H421.429V73.88H418.749V78.26C418.749 78.7133 418.862 79.0667 419.089 79.32C419.329 79.56 419.662 79.68 420.089 79.68C420.582 79.68 421.002 79.5467 421.349 79.28L422.189 81.48ZM423.94 71.24H427.06V82H423.94V71.24ZM425.5 69.74C424.927 69.74 424.46 69.5733 424.1 69.24C423.74 68.9067 423.56 68.4933 423.56 68C423.56 67.5067 423.74 67.0933 424.1 66.76C424.46 66.4267 424.927 66.26 425.5 66.26C426.073 66.26 426.54 66.42 426.9 66.74C427.26 67.06 427.44 67.46 427.44 67.94C427.44 68.46 427.26 68.8933 426.9 69.24C426.54 69.5733 426.073 69.74 425.5 69.74ZM433.376 71.48H436.136V73.88H433.456V82H430.336V73.88H428.676V71.48H430.336V71C430.336 69.7733 430.696 68.8 431.416 68.08C432.149 67.36 433.176 67 434.496 67C434.962 67 435.402 67.0533 435.816 67.16C436.242 67.2533 436.596 67.3933 436.876 67.58L436.056 69.84C435.696 69.5867 435.276 69.46 434.796 69.46C433.849 69.46 433.376 69.98 433.376 71.02V71.48ZM439.296 71.24H442.416V82H439.296V71.24ZM440.856 69.74C440.282 69.74 439.816 69.5733 439.456 69.24C439.096 68.9067 438.916 68.4933 438.916 68C438.916 67.5067 439.096 67.0933 439.456 66.76C439.816 66.4267 440.282 66.26 440.856 66.26C441.429 66.26 441.896 66.42 442.256 66.74C442.616 67.06 442.796 67.46 442.796 67.94C442.796 68.46 442.616 68.8933 442.256 69.24C441.896 69.5733 441.429 69.74 440.856 69.74ZM455.847 76.66C455.847 76.7 455.827 76.98 455.787 77.5H447.647C447.794 78.1667 448.141 78.6933 448.687 79.08C449.234 79.4667 449.914 79.66 450.727 79.66C451.287 79.66 451.781 79.58 452.207 79.42C452.647 79.2467 453.054 78.98 453.427 78.62L455.087 80.42C454.074 81.58 452.594 82.16 450.647 82.16C449.434 82.16 448.361 81.9267 447.427 81.46C446.494 80.98 445.774 80.32 445.267 79.48C444.761 78.64 444.507 77.6867 444.507 76.62C444.507 75.5667 444.754 74.62 445.247 73.78C445.754 72.9267 446.441 72.2667 447.307 71.8C448.187 71.32 449.167 71.08 450.247 71.08C451.301 71.08 452.254 71.3067 453.107 71.76C453.961 72.2133 454.627 72.8667 455.107 73.72C455.601 74.56 455.847 75.54 455.847 76.66ZM450.267 73.44C449.561 73.44 448.967 73.64 448.487 74.04C448.007 74.44 447.714 74.9867 447.607 75.68H452.907C452.801 75 452.507 74.46 452.027 74.06C451.547 73.6467 450.961 73.44 450.267 73.44ZM468.884 67.16V82H465.904V80.76C465.131 81.6933 464.011 82.16 462.544 82.16C461.531 82.16 460.611 81.9333 459.784 81.48C458.971 81.0267 458.331 80.38 457.864 79.54C457.398 78.7 457.164 77.7267 457.164 76.62C457.164 75.5133 457.398 74.54 457.864 73.7C458.331 72.86 458.971 72.2133 459.784 71.76C460.611 71.3067 461.531 71.08 462.544 71.08C463.918 71.08 464.991 71.5133 465.764 72.38V67.16H468.884ZM463.084 79.6C463.871 79.6 464.524 79.3333 465.044 78.8C465.564 78.2533 465.824 77.5267 465.824 76.62C465.824 75.7133 465.564 74.9933 465.044 74.46C464.524 73.9133 463.871 73.64 463.084 73.64C462.284 73.64 461.624 73.9133 461.104 74.46C460.584 74.9933 460.324 75.7133 460.324 76.62C460.324 77.5267 460.584 78.2533 461.104 78.8C461.624 79.3333 462.284 79.6 463.084 79.6ZM57.72 101C58.96 101 60.0333 101.207 60.94 101.62C61.86 102.033 62.5667 102.62 63.06 103.38C63.5533 104.14 63.8 105.04 63.8 106.08C63.8 107.107 63.5533 108.007 63.06 108.78C62.5667 109.54 61.86 110.127 60.94 110.54C60.0333 110.94 58.96 111.14 57.72 111.14H54.9V115H51.66V101H57.72ZM57.54 108.5C58.5133 108.5 59.2533 108.293 59.76 107.88C60.2667 107.453 60.52 106.853 60.52 106.08C60.52 105.293 60.2667 104.693 59.76 104.28C59.2533 103.853 58.5133 103.64 57.54 103.64H54.9V108.5H57.54ZM73.0084 115.24C71.5818 115.24 70.2884 114.933 69.1284 114.32C67.9818 113.693 67.0751 112.833 66.4084 111.74C65.7551 110.633 65.4284 109.387 65.4284 108C65.4284 106.613 65.7551 105.373 66.4084 104.28C67.0751 103.173 67.9818 102.313 69.1284 101.7C70.2884 101.073 71.5884 100.76 73.0284 100.76C74.2418 100.76 75.3351 100.973 76.3084 101.4C77.2951 101.827 78.1218 102.44 78.7884 103.24L76.7084 105.16C75.7618 104.067 74.5884 103.52 73.1884 103.52C72.3218 103.52 71.5484 103.713 70.8684 104.1C70.1884 104.473 69.6551 105 69.2684 105.68C68.8951 106.36 68.7084 107.133 68.7084 108C68.7084 108.867 68.8951 109.64 69.2684 110.32C69.6551 111 70.1884 111.533 70.8684 111.92C71.5484 112.293 72.3218 112.48 73.1884 112.48C74.5884 112.48 75.7618 111.927 76.7084 110.82L78.7884 112.74C78.1218 113.553 77.2951 114.173 76.3084 114.6C75.3218 115.027 74.2218 115.24 73.0084 115.24ZM80.9764 101H84.2164V115H80.9764V101ZM87.5389 101H93.8989C95.4189 101 96.7589 101.293 97.9189 101.88C99.0922 102.453 99.9989 103.267 100.639 104.32C101.292 105.373 101.619 106.6 101.619 108C101.619 109.4 101.292 110.627 100.639 111.68C99.9989 112.733 99.0922 113.553 97.9189 114.14C96.7589 114.713 95.4189 115 93.8989 115H87.5389V101ZM93.7389 112.34C95.1389 112.34 96.2522 111.953 97.0789 111.18C97.9189 110.393 98.3389 109.333 98.3389 108C98.3389 106.667 97.9189 105.613 97.0789 104.84C96.2522 104.053 95.1389 103.66 93.7389 103.66H90.7789V112.34H93.7389ZM108.662 115.24C107.556 115.24 106.482 115.093 105.442 114.8C104.416 114.493 103.589 114.1 102.962 113.62L104.062 111.18C104.662 111.62 105.376 111.973 106.202 112.24C107.029 112.507 107.856 112.64 108.682 112.64C109.602 112.64 110.282 112.507 110.722 112.24C111.162 111.96 111.382 111.593 111.382 111.14C111.382 110.807 111.249 110.533 110.982 110.32C110.729 110.093 110.396 109.913 109.982 109.78C109.582 109.647 109.036 109.5 108.342 109.34C107.276 109.087 106.402 108.833 105.722 108.58C105.042 108.327 104.456 107.92 103.962 107.36C103.482 106.8 103.242 106.053 103.242 105.12C103.242 104.307 103.462 103.573 103.902 102.92C104.342 102.253 105.002 101.727 105.882 101.34C106.776 100.953 107.862 100.76 109.142 100.76C110.036 100.76 110.909 100.867 111.762 101.08C112.616 101.293 113.362 101.6 114.002 102L113.002 104.46C111.709 103.727 110.416 103.36 109.122 103.36C108.216 103.36 107.542 103.507 107.102 103.8C106.676 104.093 106.462 104.48 106.462 104.96C106.462 105.44 106.709 105.8 107.202 106.04C107.709 106.267 108.476 106.493 109.502 106.72C110.569 106.973 111.442 107.227 112.122 107.48C112.802 107.733 113.382 108.133 113.862 108.68C114.356 109.227 114.602 109.967 114.602 110.9C114.602 111.7 114.376 112.433 113.922 113.1C113.482 113.753 112.816 114.273 111.922 114.66C111.029 115.047 109.942 115.24 108.662 115.24ZM121.416 115.24C120.31 115.24 119.236 115.093 118.196 114.8C117.17 114.493 116.343 114.1 115.716 113.62L116.816 111.18C117.416 111.62 118.13 111.973 118.956 112.24C119.783 112.507 120.61 112.64 121.436 112.64C122.356 112.64 123.036 112.507 123.476 112.24C123.916 111.96 124.136 111.593 124.136 111.14C124.136 110.807 124.003 110.533 123.736 110.32C123.483 110.093 123.15 109.913 122.736 109.78C122.336 109.647 121.79 109.5 121.096 109.34C120.03 109.087 119.156 108.833 118.476 108.58C117.796 108.327 117.21 107.92 116.716 107.36C116.236 106.8 115.996 106.053 115.996 105.12C115.996 104.307 116.216 103.573 116.656 102.92C117.096 102.253 117.756 101.727 118.636 101.34C119.53 100.953 120.616 100.76 121.896 100.76C122.79 100.76 123.663 100.867 124.516 101.08C125.37 101.293 126.116 101.6 126.756 102L125.756 104.46C124.463 103.727 123.17 103.36 121.876 103.36C120.97 103.36 120.296 103.507 119.856 103.8C119.43 104.093 119.216 104.48 119.216 104.96C119.216 105.44 119.463 105.8 119.956 106.04C120.463 106.267 121.23 106.493 122.256 106.72C123.323 106.973 124.196 107.227 124.876 107.48C125.556 107.733 126.136 108.133 126.616 108.68C127.11 109.227 127.356 109.967 127.356 110.9C127.356 111.7 127.13 112.433 126.676 113.1C126.236 113.753 125.57 114.273 124.676 114.66C123.783 115.047 122.696 115.24 121.416 115.24ZM141.934 115.24C140.508 115.24 139.214 114.933 138.054 114.32C136.908 113.693 136.001 112.833 135.334 111.74C134.681 110.633 134.354 109.387 134.354 108C134.354 106.613 134.681 105.373 135.334 104.28C136.001 103.173 136.908 102.313 138.054 101.7C139.214 101.073 140.514 100.76 141.954 100.76C143.168 100.76 144.261 100.973 145.234 101.4C146.221 101.827 147.048 102.44 147.714 103.24L145.634 105.16C144.688 104.067 143.514 103.52 142.114 103.52C141.248 103.52 140.474 103.713 139.794 104.1C139.114 104.473 138.581 105 138.194 105.68C137.821 106.36 137.634 107.133 137.634 108C137.634 108.867 137.821 109.64 138.194 110.32C138.581 111 139.114 111.533 139.794 111.92C140.474 112.293 141.248 112.48 142.114 112.48C143.514 112.48 144.688 111.927 145.634 110.82L147.714 112.74C147.048 113.553 146.221 114.173 145.234 114.6C144.248 115.027 143.148 115.24 141.934 115.24ZM159.851 109.66C159.851 109.7 159.831 109.98 159.791 110.5H151.651C151.798 111.167 152.144 111.693 152.691 112.08C153.238 112.467 153.918 112.66 154.731 112.66C155.291 112.66 155.784 112.58 156.211 112.42C156.651 112.247 157.058 111.98 157.431 111.62L159.091 113.42C158.078 114.58 156.598 115.16 154.651 115.16C153.438 115.16 152.364 114.927 151.431 114.46C150.498 113.98 149.778 113.32 149.271 112.48C148.764 111.64 148.511 110.687 148.511 109.62C148.511 108.567 148.758 107.62 149.251 106.78C149.758 105.927 150.444 105.267 151.311 104.8C152.191 104.32 153.171 104.08 154.251 104.08C155.304 104.08 156.258 104.307 157.111 104.76C157.964 105.213 158.631 105.867 159.111 106.72C159.604 107.56 159.851 108.54 159.851 109.66ZM154.271 106.44C153.564 106.44 152.971 106.64 152.491 107.04C152.011 107.44 151.718 107.987 151.611 108.68H156.911C156.804 108 156.511 107.46 156.031 107.06C155.551 106.647 154.964 106.44 154.271 106.44ZM164.908 105.66C165.282 105.14 165.782 104.747 166.408 104.48C167.048 104.213 167.782 104.08 168.608 104.08V106.96C168.262 106.933 168.028 106.92 167.908 106.92C167.015 106.92 166.315 107.173 165.808 107.68C165.302 108.173 165.048 108.92 165.048 109.92V115H161.928V104.24H164.908V105.66ZM177.775 114.48C177.468 114.707 177.088 114.88 176.635 115C176.195 115.107 175.728 115.16 175.235 115.16C173.955 115.16 172.961 114.833 172.255 114.18C171.561 113.527 171.215 112.567 171.215 111.3V106.88H169.555V104.48H171.215V101.86H174.335V104.48H177.015V106.88H174.335V111.26C174.335 111.713 174.448 112.067 174.675 112.32C174.915 112.56 175.248 112.68 175.675 112.68C176.168 112.68 176.588 112.547 176.935 112.28L177.775 114.48ZM179.526 104.24H182.646V115H179.526V104.24ZM181.086 102.74C180.513 102.74 180.046 102.573 179.686 102.24C179.326 101.907 179.146 101.493 179.146 101C179.146 100.507 179.326 100.093 179.686 99.76C180.046 99.4267 180.513 99.26 181.086 99.26C181.659 99.26 182.126 99.42 182.486 99.74C182.846 100.06 183.026 100.46 183.026 100.94C183.026 101.46 182.846 101.893 182.486 102.24C182.126 102.573 181.659 102.74 181.086 102.74ZM188.962 104.48H191.722V106.88H189.042V115H185.922V106.88H184.262V104.48H185.922V104C185.922 102.773 186.282 101.8 187.002 101.08C187.735 100.36 188.762 100 190.082 100C190.548 100 190.988 100.053 191.402 100.16C191.828 100.253 192.182 100.393 192.462 100.58L191.642 102.84C191.282 102.587 190.862 102.46 190.382 102.46C189.435 102.46 188.962 102.98 188.962 104.02V104.48ZM194.882 104.24H198.002V115H194.882V104.24ZM196.442 102.74C195.868 102.74 195.402 102.573 195.042 102.24C194.682 101.907 194.502 101.493 194.502 101C194.502 100.507 194.682 100.093 195.042 99.76C195.402 99.4267 195.868 99.26 196.442 99.26C197.015 99.26 197.482 99.42 197.842 99.74C198.202 100.06 198.382 100.46 198.382 100.94C198.382 101.46 198.202 101.893 197.842 102.24C197.482 102.573 197.015 102.74 196.442 102.74ZM211.433 109.66C211.433 109.7 211.413 109.98 211.373 110.5H203.233C203.38 111.167 203.726 111.693 204.273 112.08C204.82 112.467 205.5 112.66 206.313 112.66C206.873 112.66 207.366 112.58 207.793 112.42C208.233 112.247 208.64 111.98 209.013 111.62L210.673 113.42C209.66 114.58 208.18 115.16 206.233 115.16C205.02 115.16 203.946 114.927 203.013 114.46C202.08 113.98 201.36 113.32 200.853 112.48C200.346 111.64 200.093 110.687 200.093 109.62C200.093 108.567 200.34 107.62 200.833 106.78C201.34 105.927 202.026 105.267 202.893 104.8C203.773 104.32 204.753 104.08 205.833 104.08C206.886 104.08 207.84 104.307 208.693 104.76C209.546 105.213 210.213 105.867 210.693 106.72C211.186 107.56 211.433 108.54 211.433 109.66ZM205.853 106.44C205.146 106.44 204.553 106.64 204.073 107.04C203.593 107.44 203.3 107.987 203.193 108.68H208.493C208.386 108 208.093 107.46 207.613 107.06C207.133 106.647 206.546 106.44 205.853 106.44ZM224.47 100.16V115H221.49V113.76C220.717 114.693 219.597 115.16 218.13 115.16C217.117 115.16 216.197 114.933 215.37 114.48C214.557 114.027 213.917 113.38 213.45 112.54C212.984 111.7 212.75 110.727 212.75 109.62C212.75 108.513 212.984 107.54 213.45 106.7C213.917 105.86 214.557 105.213 215.37 104.76C216.197 104.307 217.117 104.08 218.13 104.08C219.504 104.08 220.577 104.513 221.35 105.38V100.16H224.47ZM218.67 112.6C219.457 112.6 220.11 112.333 220.63 111.8C221.15 111.253 221.41 110.527 221.41 109.62C221.41 108.713 221.15 107.993 220.63 107.46C220.11 106.913 219.457 106.64 218.67 106.64C217.87 106.64 217.21 106.913 216.69 107.46C216.17 107.993 215.91 108.713 215.91 109.62C215.91 110.527 216.17 111.253 216.69 111.8C217.21 112.333 217.87 112.6 218.67 112.6ZM64.5 134V148H61.84L54.86 139.5V148H51.66V134H54.34L61.3 142.5V134H64.5ZM67.8123 134H74.1723C75.6923 134 77.0323 134.293 78.1923 134.88C79.3657 135.453 80.2723 136.267 80.9123 137.32C81.5657 138.373 81.8923 139.6 81.8923 141C81.8923 142.4 81.5657 143.627 80.9123 144.68C80.2723 145.733 79.3657 146.553 78.1923 147.14C77.0323 147.713 75.6923 148 74.1723 148H67.8123V134ZM74.0123 145.34C75.4123 145.34 76.5257 144.953 77.3523 144.18C78.1923 143.393 78.6123 142.333 78.6123 141C78.6123 139.667 78.1923 138.613 77.3523 137.84C76.5257 137.053 75.4123 136.66 74.0123 136.66H71.0523V145.34H74.0123ZM90.3958 134C91.6358 134 92.7091 134.207 93.6158 134.62C94.5358 135.033 95.2424 135.62 95.7358 136.38C96.2291 137.14 96.4758 138.04 96.4758 139.08C96.4758 140.107 96.2291 141.007 95.7358 141.78C95.2424 142.54 94.5358 143.127 93.6158 143.54C92.7091 143.94 91.6358 144.14 90.3958 144.14H87.5758V148H84.3358V134H90.3958ZM90.2158 141.5C91.1891 141.5 91.9291 141.293 92.4358 140.88C92.9424 140.453 93.1958 139.853 93.1958 139.08C93.1958 138.293 92.9424 137.693 92.4358 137.28C91.9291 136.853 91.1891 136.64 90.2158 136.64H87.5758V141.5H90.2158ZM107.709 148L105.009 144.1H104.849H102.029V148H98.7889V134H104.849C106.089 134 107.162 134.207 108.069 134.62C108.989 135.033 109.696 135.62 110.189 136.38C110.682 137.14 110.929 138.04 110.929 139.08C110.929 140.12 110.676 141.02 110.169 141.78C109.676 142.527 108.969 143.1 108.049 143.5L111.189 148H107.709ZM107.649 139.08C107.649 138.293 107.396 137.693 106.889 137.28C106.382 136.853 105.642 136.64 104.669 136.64H102.029V141.52H104.669C105.642 141.52 106.382 141.307 106.889 140.88C107.396 140.453 107.649 139.853 107.649 139.08ZM125.86 148.24C124.433 148.24 123.14 147.933 121.98 147.32C120.833 146.693 119.927 145.833 119.26 144.74C118.607 143.633 118.28 142.387 118.28 141C118.28 139.613 118.607 138.373 119.26 137.28C119.927 136.173 120.833 135.313 121.98 134.7C123.14 134.073 124.44 133.76 125.88 133.76C127.093 133.76 128.187 133.973 129.16 134.4C130.147 134.827 130.973 135.44 131.64 136.24L129.56 138.16C128.613 137.067 127.44 136.52 126.04 136.52C125.173 136.52 124.4 136.713 123.72 137.1C123.04 137.473 122.507 138 122.12 138.68C121.747 139.36 121.56 140.133 121.56 141C121.56 141.867 121.747 142.64 122.12 143.32C122.507 144 123.04 144.533 123.72 144.92C124.4 145.293 125.173 145.48 126.04 145.48C127.44 145.48 128.613 144.927 129.56 143.82L131.64 145.74C130.973 146.553 130.147 147.173 129.16 147.6C128.173 148.027 127.073 148.24 125.86 148.24ZM138.357 148.16C137.224 148.16 136.204 147.927 135.297 147.46C134.404 146.98 133.704 146.32 133.197 145.48C132.69 144.64 132.437 143.687 132.437 142.62C132.437 141.553 132.69 140.6 133.197 139.76C133.704 138.92 134.404 138.267 135.297 137.8C136.204 137.32 137.224 137.08 138.357 137.08C139.49 137.08 140.504 137.32 141.397 137.8C142.29 138.267 142.99 138.92 143.497 139.76C144.004 140.6 144.257 141.553 144.257 142.62C144.257 143.687 144.004 144.64 143.497 145.48C142.99 146.32 142.29 146.98 141.397 147.46C140.504 147.927 139.49 148.16 138.357 148.16ZM138.357 145.6C139.157 145.6 139.81 145.333 140.317 144.8C140.837 144.253 141.097 143.527 141.097 142.62C141.097 141.713 140.837 140.993 140.317 140.46C139.81 139.913 139.157 139.64 138.357 139.64C137.557 139.64 136.897 139.913 136.377 140.46C135.857 140.993 135.597 141.713 135.597 142.62C135.597 143.527 135.857 144.253 136.377 144.8C136.897 145.333 137.557 145.6 138.357 145.6ZM160.122 137.08C161.469 137.08 162.536 137.48 163.322 138.28C164.122 139.067 164.522 140.253 164.522 141.84V148H161.402V142.32C161.402 141.467 161.222 140.833 160.862 140.42C160.516 139.993 160.016 139.78 159.362 139.78C158.629 139.78 158.049 140.02 157.622 140.5C157.196 140.967 156.982 141.667 156.982 142.6V148H153.862V142.32C153.862 140.627 153.182 139.78 151.822 139.78C151.102 139.78 150.529 140.02 150.102 140.5C149.676 140.967 149.462 141.667 149.462 142.6V148H146.342V137.24H149.322V138.48C149.722 138.027 150.209 137.68 150.782 137.44C151.369 137.2 152.009 137.08 152.702 137.08C153.462 137.08 154.149 137.233 154.762 137.54C155.376 137.833 155.869 138.267 156.242 138.84C156.682 138.28 157.236 137.847 157.902 137.54C158.582 137.233 159.322 137.08 160.122 137.08ZM173.679 137.08C174.679 137.08 175.586 137.313 176.399 137.78C177.226 138.233 177.872 138.88 178.339 139.72C178.806 140.547 179.039 141.513 179.039 142.62C179.039 143.727 178.806 144.7 178.339 145.54C177.872 146.367 177.226 147.013 176.399 147.48C175.586 147.933 174.679 148.16 173.679 148.16C172.306 148.16 171.226 147.727 170.439 146.86V151.88H167.319V137.24H170.299V138.48C171.072 137.547 172.199 137.08 173.679 137.08ZM173.139 145.6C173.939 145.6 174.592 145.333 175.099 144.8C175.619 144.253 175.879 143.527 175.879 142.62C175.879 141.713 175.619 140.993 175.099 140.46C174.592 139.913 173.939 139.64 173.139 139.64C172.339 139.64 171.679 139.913 171.159 140.46C170.652 140.993 170.399 141.713 170.399 142.62C170.399 143.527 170.652 144.253 171.159 144.8C171.679 145.333 172.339 145.6 173.139 145.6ZM181.128 133.16H184.248V148H181.128V133.16ZM187.143 137.24H190.263V148H187.143V137.24ZM188.703 135.74C188.13 135.74 187.663 135.573 187.303 135.24C186.943 134.907 186.763 134.493 186.763 134C186.763 133.507 186.943 133.093 187.303 132.76C187.663 132.427 188.13 132.26 188.703 132.26C189.276 132.26 189.743 132.42 190.103 132.74C190.463 133.06 190.643 133.46 190.643 133.94C190.643 134.46 190.463 134.893 190.103 135.24C189.743 135.573 189.276 135.74 188.703 135.74ZM197.499 137.08C199.165 137.08 200.445 137.48 201.339 138.28C202.232 139.067 202.679 140.26 202.679 141.86V148H199.759V146.66C199.172 147.66 198.079 148.16 196.479 148.16C195.652 148.16 194.932 148.02 194.319 147.74C193.719 147.46 193.259 147.073 192.939 146.58C192.619 146.087 192.459 145.527 192.459 144.9C192.459 143.9 192.832 143.113 193.579 142.54C194.339 141.967 195.505 141.68 197.079 141.68H199.559C199.559 141 199.352 140.48 198.939 140.12C198.525 139.747 197.905 139.56 197.079 139.56C196.505 139.56 195.939 139.653 195.379 139.84C194.832 140.013 194.365 140.253 193.979 140.56L192.859 138.38C193.445 137.967 194.145 137.647 194.959 137.42C195.785 137.193 196.632 137.08 197.499 137.08ZM197.259 146.06C197.792 146.06 198.265 145.94 198.679 145.7C199.092 145.447 199.385 145.08 199.559 144.6V143.5H197.419C196.139 143.5 195.499 143.92 195.499 144.76C195.499 145.16 195.652 145.48 195.959 145.72C196.279 145.947 196.712 146.06 197.259 146.06ZM212.043 137.08C213.376 137.08 214.449 137.48 215.263 138.28C216.089 139.08 216.503 140.267 216.503 141.84V148H213.383V142.32C213.383 141.467 213.196 140.833 212.823 140.42C212.449 139.993 211.909 139.78 211.203 139.78C210.416 139.78 209.789 140.027 209.323 140.52C208.856 141 208.623 141.72 208.623 142.68V148H205.503V137.24H208.483V138.5C208.896 138.047 209.409 137.7 210.023 137.46C210.636 137.207 211.309 137.08 212.043 137.08ZM226.271 147.48C225.964 147.707 225.584 147.88 225.131 148C224.691 148.107 224.224 148.16 223.731 148.16C222.451 148.16 221.457 147.833 220.751 147.18C220.057 146.527 219.711 145.567 219.711 144.3V139.88H218.051V137.48H219.711V134.86H222.831V137.48H225.511V139.88H222.831V144.26C222.831 144.713 222.944 145.067 223.171 145.32C223.411 145.56 223.744 145.68 224.171 145.68C224.664 145.68 225.084 145.547 225.431 145.28L226.271 147.48Z" fill="#171717" fill-opacity="0.72"/>
<path d="M22.41 73.5899L20.36 71.5399V68.6299C20.36 68.0995 20.1493 67.5908 19.7742 67.2157C19.3991 66.8406 18.8904 66.6299 18.36 66.6299H15.46L13.41 64.6299C13.0353 64.2574 12.5284 64.0483 12 64.0483C11.4716 64.0483 10.9647 64.2574 10.59 64.6299L8.54 66.6399H5.63C5.09957 66.6399 4.59086 66.8506 4.21579 67.2257C3.84071 67.6008 3.63 68.1095 3.63 68.6399V71.5399L1.63 73.5899C1.43677 73.7715 1.28157 73.9896 1.17342 74.2317C1.06526 74.4737 1.00631 74.7349 1 74.9999C0.999579 75.5281 1.20808 76.0349 1.58 76.4099L3.64 78.4599V81.3699C3.64 81.9004 3.85071 82.4091 4.22579 82.7841C4.60086 83.1592 5.10957 83.3699 5.64 83.3699H8.54L10.59 85.4199C10.965 85.7918 11.4719 86.0003 12 85.9999C12.5281 86.0003 13.035 85.7918 13.41 85.4199L15.46 83.3599H18.37C18.9004 83.3599 19.4091 83.1492 19.7842 82.7741C20.1593 82.3991 20.37 81.8904 20.37 81.3599V78.4599L22.42 76.4099C22.7925 76.0352 23.0016 75.5283 23.0016 74.9999C23.0016 74.4716 22.7925 73.9647 22.42 73.5899H22.41ZM18.36 77.6399V81.3599H14.64L12 83.9999L9.36 81.3599H5.64V77.6399L3 74.9999L5.64 72.3599V68.6399H9.36L12 65.9999L14.64 68.6399H18.36V72.3599L21 74.9999L18.36 77.6399Z" fill="#7E3D64"/>
<path d="M11 75.7299L8.71004 73.4399L7.29004 74.8499L11 78.5599L16.71 72.8499L15.29 71.4399L11 75.7299Z" fill="#7E3D64"/>
<path d="M22.41 105.59L20.36 103.54V100.63C20.36 100.099 20.1493 99.5908 19.7742 99.2157C19.3991 98.8406 18.8904 98.6299 18.36 98.6299H15.46L13.41 96.6299C13.0353 96.2574 12.5284 96.0483 12 96.0483C11.4716 96.0483 10.9647 96.2574 10.59 96.6299L8.54 98.6399H5.63C5.09957 98.6399 4.59086 98.8506 4.21579 99.2257C3.84071 99.6008 3.63 100.109 3.63 100.64V103.54L1.63 105.59C1.43677 105.771 1.28157 105.99 1.17342 106.232C1.06526 106.474 1.00631 106.735 1 107C0.999579 107.528 1.20808 108.035 1.58 108.41L3.64 110.46V113.37C3.64 113.9 3.85071 114.409 4.22579 114.784C4.60086 115.159 5.10957 115.37 5.64 115.37H8.54L10.59 117.42C10.965 117.792 11.4719 118 12 118C12.5281 118 13.035 117.792 13.41 117.42L15.46 115.36H18.37C18.9004 115.36 19.4091 115.149 19.7842 114.774C20.1593 114.399 20.37 113.89 20.37 113.36V110.46L22.42 108.41C22.7925 108.035 23.0016 107.528 23.0016 107C23.0016 106.472 22.7925 105.965 22.42 105.59H22.41ZM18.36 109.64V113.36H14.64L12 116L9.36 113.36H5.64V109.64L3 107L5.64 104.36V100.64H9.36L12 97.9999L14.64 100.64H18.36V104.36L21 107L18.36 109.64Z" fill="#7E3D64"/>
<path d="M11 107.73L8.71004 105.44L7.29004 106.85L11 110.56L16.71 104.85L15.29 103.44L11 107.73Z" fill="#7E3D64"/>
<path d="M22.41 137.59L20.36 135.54V132.63C20.36 132.099 20.1493 131.591 19.7742 131.216C19.3991 130.841 18.8904 130.63 18.36 130.63H15.46L13.41 128.63C13.0353 128.257 12.5284 128.048 12 128.048C11.4716 128.048 10.9647 128.257 10.59 128.63L8.54 130.64H5.63C5.09957 130.64 4.59086 130.851 4.21579 131.226C3.84071 131.601 3.63 132.109 3.63 132.64V135.54L1.63 137.59C1.43677 137.771 1.28157 137.99 1.17342 138.232C1.06526 138.474 1.00631 138.735 1 139C0.999579 139.528 1.20808 140.035 1.58 140.41L3.64 142.46V145.37C3.64 145.9 3.85071 146.409 4.22579 146.784C4.60086 147.159 5.10957 147.37 5.64 147.37H8.54L10.59 149.42C10.965 149.792 11.4719 150 12 150C12.5281 150 13.035 149.792 13.41 149.42L15.46 147.36H18.37C18.9004 147.36 19.4091 147.149 19.7842 146.774C20.1593 146.399 20.37 145.89 20.37 145.36V142.46L22.42 140.41C22.7925 140.035 23.0016 139.528 23.0016 139C23.0016 138.472 22.7925 137.965 22.42 137.59H22.41ZM18.36 141.64V145.36H14.64L12 148L9.36 145.36H5.64V141.64L3 139L5.64 136.36V132.64H9.36L12 130L14.64 132.64H18.36V136.36L21 139L18.36 141.64Z" fill="#7E3D64"/>
<path d="M11 139.73L8.71004 137.44L7.29004 138.85L11 142.56L16.71 136.85L15.29 135.44L11 139.73Z" fill="#7E3D64"/>
</svg>
