<svg width="203" height="35" viewBox="0 0 203 35" fill="none" xmlns="http://www.w3.org/2000/svg">
<path d="M50.192 14.548H47.056V12.7H55.596V14.548H52.46V22.5H50.192V14.548ZM58.5842 15.962C58.8456 15.598 59.1956 15.3227 59.6342 15.136C60.0822 14.9493 60.5956 14.856 61.1742 14.856V16.872C60.9316 16.8533 60.7682 16.844 60.6842 16.844C60.0589 16.844 59.5689 17.0213 59.2142 17.376C58.8596 17.7213 58.6822 18.244 58.6822 18.944V22.5H56.4982V14.968H58.5842V15.962ZM65.4698 14.856C66.6365 14.856 67.5325 15.136 68.1578 15.696C68.7832 16.2467 69.0958 17.082 69.0958 18.202V22.5H67.0518V21.562C66.6412 22.262 65.8758 22.612 64.7558 22.612C64.1772 22.612 63.6732 22.514 63.2438 22.318C62.8238 22.122 62.5018 21.8513 62.2778 21.506C62.0538 21.1607 61.9418 20.7687 61.9418 20.33C61.9418 19.63 62.2032 19.0793 62.7258 18.678C63.2578 18.2767 64.0745 18.076 65.1758 18.076H66.9118C66.9118 17.6 66.7672 17.236 66.4778 16.984C66.1885 16.7227 65.7545 16.592 65.1758 16.592C64.7745 16.592 64.3778 16.6573 63.9858 16.788C63.6032 16.9093 63.2765 17.0773 63.0058 17.292L62.2218 15.766C62.6325 15.4767 63.1225 15.2527 63.6918 15.094C64.2705 14.9353 64.8632 14.856 65.4698 14.856ZM65.3018 21.142C65.6752 21.142 66.0065 21.058 66.2958 20.89C66.5852 20.7127 66.7905 20.456 66.9118 20.12V19.35H65.4138C64.5178 19.35 64.0698 19.644 64.0698 20.232C64.0698 20.512 64.1772 20.736 64.3918 20.904C64.6158 21.0627 64.9192 21.142 65.3018 21.142ZM75.6505 14.856C76.5838 14.856 77.3351 15.136 77.9045 15.696C78.4831 16.256 78.7725 17.0867 78.7725 18.188V22.5H76.5885V18.524C76.5885 17.9267 76.4578 17.4833 76.1965 17.194C75.9351 16.8953 75.5571 16.746 75.0625 16.746C74.5118 16.746 74.0731 16.9187 73.7465 17.264C73.4198 17.6 73.2565 18.104 73.2565 18.776V22.5H71.0725V14.968H73.1585V15.85C73.4478 15.5327 73.8071 15.29 74.2365 15.122C74.6658 14.9447 75.1371 14.856 75.6505 14.856ZM83.2861 22.612C82.6608 22.612 82.0495 22.5373 81.4521 22.388C80.8548 22.2293 80.3788 22.0333 80.0241 21.8L80.7521 20.232C81.0881 20.4467 81.4941 20.624 81.9701 20.764C82.4461 20.8947 82.9128 20.96 83.3701 20.96C84.2941 20.96 84.7561 20.7313 84.7561 20.274C84.7561 20.0593 84.6301 19.9053 84.3781 19.812C84.1261 19.7187 83.7388 19.6393 83.2161 19.574C82.6001 19.4807 82.0915 19.3733 81.6901 19.252C81.2888 19.1307 80.9388 18.916 80.6401 18.608C80.3508 18.3 80.2061 17.8613 80.2061 17.292C80.2061 16.816 80.3415 16.396 80.6121 16.032C80.8921 15.6587 81.2935 15.3693 81.8161 15.164C82.3481 14.9587 82.9735 14.856 83.6921 14.856C84.2241 14.856 84.7515 14.9167 85.2741 15.038C85.8061 15.15 86.2448 15.3087 86.5901 15.514L85.8621 17.068C85.1995 16.6947 84.4761 16.508 83.6921 16.508C83.2255 16.508 82.8755 16.5733 82.6421 16.704C82.4088 16.8347 82.2921 17.0027 82.2921 17.208C82.2921 17.4413 82.4181 17.6047 82.6701 17.698C82.9221 17.7913 83.3235 17.88 83.8741 17.964C84.4901 18.0667 84.9941 18.1787 85.3861 18.3C85.7781 18.412 86.1188 18.622 86.4081 18.93C86.6975 19.238 86.8421 19.6673 86.8421 20.218C86.8421 20.6847 86.7021 21.1 86.4221 21.464C86.1421 21.828 85.7315 22.1127 85.1901 22.318C84.6581 22.514 84.0235 22.612 83.2861 22.612ZM91.2276 14.856C92.3943 14.856 93.2903 15.136 93.9156 15.696C94.541 16.2467 94.8536 17.082 94.8536 18.202V22.5H92.8096V21.562C92.399 22.262 91.6336 22.612 90.5136 22.612C89.935 22.612 89.431 22.514 89.0016 22.318C88.5816 22.122 88.2596 21.8513 88.0356 21.506C87.8116 21.1607 87.6996 20.7687 87.6996 20.33C87.6996 19.63 87.961 19.0793 88.4836 18.678C89.0156 18.2767 89.8323 18.076 90.9336 18.076H92.6696C92.6696 17.6 92.525 17.236 92.2356 16.984C91.9463 16.7227 91.5123 16.592 90.9336 16.592C90.5323 16.592 90.1356 16.6573 89.7436 16.788C89.361 16.9093 89.0343 17.0773 88.7636 17.292L87.9796 15.766C88.3903 15.4767 88.8803 15.2527 89.4496 15.094C90.0283 14.9353 90.621 14.856 91.2276 14.856ZM91.0596 21.142C91.433 21.142 91.7643 21.058 92.0536 20.89C92.343 20.7127 92.5483 20.456 92.6696 20.12V19.35H91.1716C90.2756 19.35 89.8276 19.644 89.8276 20.232C89.8276 20.512 89.935 20.736 90.1496 20.904C90.3736 21.0627 90.677 21.142 91.0596 21.142ZM101.688 22.136C101.474 22.2947 101.208 22.416 100.89 22.5C100.582 22.5747 100.256 22.612 99.9103 22.612C99.0143 22.612 98.3189 22.3833 97.8243 21.926C97.3389 21.4687 97.0963 20.7967 97.0963 19.91V16.816H95.9343V15.136H97.0963V13.302H99.2803V15.136H101.156V16.816H99.2803V19.882C99.2803 20.1993 99.3596 20.4467 99.5183 20.624C99.6863 20.792 99.9196 20.876 100.218 20.876C100.564 20.876 100.858 20.7827 101.1 20.596L101.688 22.136ZM102.914 14.968H105.098V22.5H102.914V14.968ZM104.006 13.918C103.605 13.918 103.278 13.8013 103.026 13.568C102.774 13.3347 102.648 13.0453 102.648 12.7C102.648 12.3547 102.774 12.0653 103.026 11.832C103.278 11.5987 103.605 11.482 104.006 11.482C104.408 11.482 104.734 11.594 104.986 11.818C105.238 12.042 105.364 12.322 105.364 12.658C105.364 13.022 105.238 13.3253 104.986 13.568C104.734 13.8013 104.408 13.918 104.006 13.918ZM110.709 22.612C109.916 22.612 109.202 22.4487 108.567 22.122C107.942 21.786 107.452 21.324 107.097 20.736C106.743 20.148 106.565 19.4807 106.565 18.734C106.565 17.9873 106.743 17.32 107.097 16.732C107.452 16.144 107.942 15.6867 108.567 15.36C109.202 15.024 109.916 14.856 110.709 14.856C111.503 14.856 112.212 15.024 112.837 15.36C113.463 15.6867 113.953 16.144 114.307 16.732C114.662 17.32 114.839 17.9873 114.839 18.734C114.839 19.4807 114.662 20.148 114.307 20.736C113.953 21.324 113.463 21.786 112.837 22.122C112.212 22.4487 111.503 22.612 110.709 22.612ZM110.709 20.82C111.269 20.82 111.727 20.6333 112.081 20.26C112.445 19.8773 112.627 19.3687 112.627 18.734C112.627 18.0993 112.445 17.5953 112.081 17.222C111.727 16.8393 111.269 16.648 110.709 16.648C110.149 16.648 109.687 16.8393 109.323 17.222C108.959 17.5953 108.777 18.0993 108.777 18.734C108.777 19.3687 108.959 19.8773 109.323 20.26C109.687 20.6333 110.149 20.82 110.709 20.82ZM120.877 14.856C121.81 14.856 122.562 15.136 123.131 15.696C123.71 16.256 123.999 17.0867 123.999 18.188V22.5H121.815V18.524C121.815 17.9267 121.684 17.4833 121.423 17.194C121.162 16.8953 120.784 16.746 120.289 16.746C119.738 16.746 119.3 16.9187 118.973 17.264C118.646 17.6 118.483 18.104 118.483 18.776V22.5H116.299V14.968H118.385V15.85C118.674 15.5327 119.034 15.29 119.463 15.122C119.892 14.9447 120.364 14.856 120.877 14.856ZM133.318 22.668C132.543 22.668 131.792 22.5653 131.064 22.36C130.345 22.1453 129.766 21.87 129.328 21.534L130.098 19.826C130.518 20.134 131.017 20.3813 131.596 20.568C132.174 20.7547 132.753 20.848 133.332 20.848C133.976 20.848 134.452 20.7547 134.76 20.568C135.068 20.372 135.222 20.1153 135.222 19.798C135.222 19.5647 135.128 19.3733 134.942 19.224C134.764 19.0653 134.531 18.9393 134.242 18.846C133.962 18.7527 133.579 18.65 133.094 18.538C132.347 18.3607 131.736 18.1833 131.26 18.006C130.784 17.8287 130.373 17.544 130.028 17.152C129.692 16.76 129.524 16.2373 129.524 15.584C129.524 15.0147 129.678 14.5013 129.986 14.044C130.294 13.5773 130.756 13.2087 131.372 12.938C131.997 12.6673 132.758 12.532 133.654 12.532C134.279 12.532 134.89 12.6067 135.488 12.756C136.085 12.9053 136.608 13.12 137.056 13.4L136.356 15.122C135.45 14.6087 134.545 14.352 133.64 14.352C133.005 14.352 132.534 14.4547 132.226 14.66C131.927 14.8653 131.778 15.136 131.778 15.472C131.778 15.808 131.95 16.06 132.296 16.228C132.65 16.3867 133.187 16.5453 133.906 16.704C134.652 16.8813 135.264 17.0587 135.74 17.236C136.216 17.4133 136.622 17.6933 136.958 18.076C137.303 18.4587 137.476 18.9767 137.476 19.63C137.476 20.19 137.317 20.7033 137 21.17C136.692 21.6273 136.225 21.9913 135.6 22.262C134.974 22.5327 134.214 22.668 133.318 22.668ZM150.831 14.968L148.101 22.5H146.001L144.307 17.824L142.557 22.5H140.457L137.741 14.968H139.799L141.577 20.064L143.425 14.968H145.273L147.065 20.064L148.899 14.968H150.831ZM151.846 14.968H154.03V22.5H151.846V14.968ZM152.938 13.918C152.537 13.918 152.21 13.8013 151.958 13.568C151.706 13.3347 151.58 13.0453 151.58 12.7C151.58 12.3547 151.706 12.0653 151.958 11.832C152.21 11.5987 152.537 11.482 152.938 11.482C153.339 11.482 153.666 11.594 153.918 11.818C154.17 12.042 154.296 12.322 154.296 12.658C154.296 13.022 154.17 13.3253 153.918 13.568C153.666 13.8013 153.339 13.918 152.938 13.918ZM160.915 22.136C160.7 22.2947 160.434 22.416 160.117 22.5C159.809 22.5747 159.482 22.612 159.137 22.612C158.241 22.612 157.545 22.3833 157.051 21.926C156.565 21.4687 156.323 20.7967 156.323 19.91V16.816H155.161V15.136H156.323V13.302H158.507V15.136H160.383V16.816H158.507V19.882C158.507 20.1993 158.586 20.4467 158.745 20.624C158.913 20.792 159.146 20.876 159.445 20.876C159.79 20.876 160.084 20.7827 160.327 20.596L160.915 22.136ZM165.548 22.612C164.746 22.612 164.022 22.4487 163.378 22.122C162.744 21.786 162.244 21.324 161.88 20.736C161.526 20.148 161.348 19.4807 161.348 18.734C161.348 17.9873 161.526 17.32 161.88 16.732C162.244 16.144 162.744 15.6867 163.378 15.36C164.022 15.024 164.746 14.856 165.548 14.856C166.342 14.856 167.032 15.024 167.62 15.36C168.218 15.6867 168.652 16.158 168.922 16.774L167.228 17.684C166.836 16.9933 166.272 16.648 165.534 16.648C164.965 16.648 164.494 16.8347 164.12 17.208C163.747 17.5813 163.56 18.09 163.56 18.734C163.56 19.378 163.747 19.8867 164.12 20.26C164.494 20.6333 164.965 20.82 165.534 20.82C166.281 20.82 166.846 20.4747 167.228 19.784L168.922 20.708C168.652 21.3053 168.218 21.772 167.62 22.108C167.032 22.444 166.342 22.612 165.548 22.612ZM174.703 14.856C175.637 14.856 176.388 15.136 176.957 15.696C177.536 16.256 177.825 17.0867 177.825 18.188V22.5H175.641V18.524C175.641 17.9267 175.511 17.4833 175.249 17.194C174.988 16.8953 174.61 16.746 174.115 16.746C173.565 16.746 173.126 16.9187 172.799 17.264C172.473 17.6 172.309 18.104 172.309 18.776V22.5H170.125V12.112H172.309V15.752C172.599 15.4627 172.949 15.2433 173.359 15.094C173.77 14.9353 174.218 14.856 174.703 14.856ZM179.805 14.968H181.989V22.5H179.805V14.968ZM180.897 13.918C180.496 13.918 180.169 13.8013 179.917 13.568C179.665 13.3347 179.539 13.0453 179.539 12.7C179.539 12.3547 179.665 12.0653 179.917 11.832C180.169 11.5987 180.496 11.482 180.897 11.482C181.298 11.482 181.625 11.594 181.877 11.818C182.129 12.042 182.255 12.322 182.255 12.658C182.255 13.022 182.129 13.3253 181.877 13.568C181.625 13.8013 181.298 13.918 180.897 13.918ZM188.594 14.856C189.527 14.856 190.278 15.136 190.848 15.696C191.426 16.256 191.716 17.0867 191.716 18.188V22.5H189.532V18.524C189.532 17.9267 189.401 17.4833 189.14 17.194C188.878 16.8953 188.5 16.746 188.006 16.746C187.455 16.746 187.016 16.9187 186.69 17.264C186.363 17.6 186.2 18.104 186.2 18.776V22.5H184.016V14.968H186.102V15.85C186.391 15.5327 186.75 15.29 187.18 15.122C187.609 14.9447 188.08 14.856 188.594 14.856ZM201.548 14.968V21.24C201.548 22.6213 201.188 23.648 200.47 24.32C199.751 24.992 198.701 25.328 197.32 25.328C196.592 25.328 195.901 25.2393 195.248 25.062C194.594 24.8847 194.053 24.628 193.624 24.292L194.492 22.724C194.809 22.9853 195.21 23.1907 195.696 23.34C196.181 23.4987 196.666 23.578 197.152 23.578C197.908 23.578 198.463 23.4053 198.818 23.06C199.182 22.724 199.364 22.2107 199.364 21.52V21.198C198.794 21.8233 198.001 22.136 196.984 22.136C196.293 22.136 195.658 21.9867 195.08 21.688C194.51 21.38 194.058 20.9507 193.722 20.4C193.386 19.8493 193.218 19.2147 193.218 18.496C193.218 17.7773 193.386 17.1427 193.722 16.592C194.058 16.0413 194.51 15.6167 195.08 15.318C195.658 15.01 196.293 14.856 196.984 14.856C198.076 14.856 198.906 15.2153 199.476 15.934V14.968H201.548ZM197.418 20.344C197.996 20.344 198.468 20.176 198.832 19.84C199.205 19.4947 199.392 19.0467 199.392 18.496C199.392 17.9453 199.205 17.502 198.832 17.166C198.468 16.8207 197.996 16.648 197.418 16.648C196.839 16.648 196.363 16.8207 195.99 17.166C195.616 17.502 195.43 17.9453 195.43 18.496C195.43 19.0467 195.616 19.4947 195.99 19.84C196.363 20.176 196.839 20.344 197.418 20.344Z" fill="#4E4E4E"/>
<circle cx="17.5" cy="17.5" r="17.5" fill="#FF0000" fill-opacity="0.15"/>
<path d="M7.5 17.5C7.5 17.721 7.5878 17.933 7.74408 18.0892C7.90036 18.2455 8.11232 18.3333 8.33333 18.3333H24.655L21.0783 21.91C20.9265 22.0672 20.8425 22.2777 20.8444 22.4962C20.8463 22.7147 20.934 22.9237 21.0885 23.0782C21.243 23.2327 21.452 23.3203 21.6705 23.3222C21.889 23.3241 22.0995 23.2401 22.2567 23.0883L27.2567 18.0883C27.3338 18.0117 27.395 17.9205 27.4367 17.8201C27.4785 17.7197 27.5 17.6121 27.5 17.5033V17.5C27.5 17.3917 27.4783 17.2833 27.435 17.1817C27.3935 17.0806 27.3323 16.9889 27.255 16.9117L22.255 11.9117C22.0978 11.7599 21.8873 11.6759 21.6688 11.6778C21.4503 11.6797 21.2413 11.7673 21.0868 11.9218C20.9323 12.0763 20.8447 12.2853 20.8428 12.5038C20.8409 12.7223 20.9249 12.9328 21.0767 13.09L24.655 16.6667H8.33333C8.11232 16.6667 7.90036 16.7545 7.74408 16.9107C7.5878 17.067 7.5 17.279 7.5 17.5Z" fill="black"/>
</svg>
